<svg width="198" height="171" viewBox="0 0 198 171" fill="none" xmlns="http://www.w3.org/2000/svg">
<path fill-rule="evenodd" clip-rule="evenodd" d="M89.6569 2.54066C88.1676 3.45155 86.7582 4.40734 86.5249 4.66468C86.0551 5.18355 91.0282 2.45558 91.8169 1.76184C92.0894 1.52224 92.5007 1.32597 92.7304 1.32597C92.9601 1.32597 93.148 17.4453 93.148 37.1467C93.148 68.9286 93.2362 72.8948 93.931 72.318C94.6153 71.75 94.6983 67.1831 94.5887 36.1058L94.464 0.542969L94.192 36.3L93.92 72.057L93.7953 36.4305C93.6966 8.31868 93.5322 0.812323 93.0175 0.844165C92.6589 0.866089 91.1461 1.62925 89.6569 2.54066ZM96.4204 1.16572C96.9283 1.2983 97.633 1.28943 97.9864 1.1464C98.3398 1.00337 97.9243 0.895319 97.063 0.905759C96.2017 0.916199 95.9125 1.03313 96.4204 1.16572ZM101.64 2.20972C102.148 2.3423 102.853 2.33343 103.206 2.1904C103.56 2.04737 103.144 1.93932 102.283 1.94976C101.422 1.9602 101.132 2.07713 101.64 2.20972ZM105.415 2.89197C105.989 3.13887 106.929 3.33358 107.503 3.32523C108.342 3.3127 108.291 3.22814 107.242 2.89197C105.457 2.32038 104.085 2.32038 105.415 2.89197ZM110.635 3.91144C111.637 4.36558 114.433 4.66155 113.985 4.2664C113.865 4.16095 112.827 3.93127 111.679 3.7564C110.224 3.53507 109.907 3.58205 110.635 3.91144ZM115.496 4.81449C115.873 4.96535 116.323 4.94656 116.497 4.77325C116.67 4.59995 116.362 4.47676 115.812 4.49921C115.204 4.52426 115.08 4.64798 115.496 4.81449ZM84.5042 5.79168C83.5312 6.57155 83.5375 6.58094 84.6655 6.03441C85.3117 5.72121 85.84 5.35581 85.84 5.2227C85.84 4.82337 85.5691 4.93873 84.5042 5.79168ZM120.686 16.3329C120.938 36.7604 121.113 38.6328 121.224 22.0755C121.286 12.9598 121.16 5.50197 120.944 5.50145C120.729 5.50093 120.613 10.3754 120.686 16.3329ZM89.7242 10.4897C88.7689 11.2555 88.7856 11.2659 90.016 10.6802C91.6138 9.91913 91.9098 9.67797 91.2469 9.67797C90.9666 9.67797 90.2817 10.0434 89.7242 10.4897ZM102.446 10.5565C102.823 10.7074 103.273 10.6886 103.447 10.5153C103.62 10.342 103.312 10.2188 102.762 10.2412C102.154 10.2663 102.03 10.39 102.446 10.5565ZM110.276 10.5565C110.653 10.7074 111.103 10.6886 111.277 10.5153C111.45 10.342 111.142 10.2188 110.592 10.2412C109.984 10.2663 109.86 10.39 110.276 10.5565ZM85.7095 11.2857C85.2068 11.5786 84.796 12.1585 84.796 12.5751C84.796 13.4802 85.6281 13.5752 86.1506 12.7291C86.3818 12.3558 86.2941 12.2681 85.9209 12.4994C84.963 13.0908 85.2225 12.2149 86.2315 11.4486C87.3131 10.6275 87.0046 10.5314 85.7095 11.2857ZM108.547 11.766C109.982 12.3825 110.806 12.3825 109.852 11.766C109.421 11.4877 108.717 11.2727 108.286 11.2889C107.77 11.3077 107.858 11.47 108.547 11.766ZM115.496 11.6005C115.873 11.7514 116.323 11.7326 116.497 11.5593C116.67 11.386 116.362 11.2628 115.812 11.2852C115.204 11.3103 115.08 11.434 115.496 11.6005ZM113.408 12.6445C113.785 12.7954 114.235 12.7766 114.409 12.6033C114.582 12.43 114.274 12.3068 113.724 12.3292C113.116 12.3543 112.992 12.478 113.408 12.6445ZM90.799 13.332C90.6215 13.6191 90.7254 13.854 91.0292 13.854C91.333 13.854 91.582 13.6191 91.582 13.332C91.582 13.0449 91.4786 12.81 91.3518 12.81C91.2249 12.81 90.9765 13.0449 90.799 13.332ZM105.578 14.7325C105.955 14.8834 106.405 14.8646 106.579 14.6913C106.752 14.518 106.444 14.3948 105.894 14.4172C105.286 14.4423 105.162 14.566 105.578 14.7325ZM106.981 16.464C107.842 16.6832 109.017 16.867 109.591 16.8722C110.409 16.88 110.353 16.7913 109.33 16.464C108.612 16.2343 107.438 16.0505 106.72 16.0558C105.548 16.0646 105.574 16.1059 106.981 16.464ZM114.974 16.2985C115.351 16.4494 115.801 16.4306 115.975 16.2573C116.148 16.084 115.84 15.9608 115.29 15.9832C114.682 16.0083 114.558 16.132 114.974 16.2985ZM84.8785 17.508C84.8785 18.2257 84.997 18.5196 85.1416 18.1605C85.2867 17.8019 85.2867 17.2146 85.1416 16.8555C84.997 16.4969 84.8785 16.7902 84.8785 17.508ZM86.884 16.986C86.4137 17.2898 86.3489 17.4949 86.7227 17.5001C87.0646 17.5043 87.4895 17.2731 87.667 16.986C88.0674 16.3376 87.8868 16.3376 86.884 16.986ZM111.461 17.1775C111.581 17.283 112.619 17.5127 113.767 17.6875C115.222 17.9089 115.539 17.8619 114.811 17.5325C113.809 17.0784 111.013 16.7824 111.461 17.1775ZM117.29 18.3896C117.793 18.5212 118.615 18.5212 119.117 18.3896C119.62 18.2586 119.209 18.1511 118.204 18.1511C117.199 18.1511 116.788 18.2586 117.29 18.3896ZM87.0145 20.2532C85.6589 20.9344 84.796 21.7273 84.796 22.2926C84.796 22.9216 85.0601 23.1158 85.6228 22.8997C86.2419 22.6622 86.2873 22.4826 85.804 22.184C85.3791 21.921 86.0321 21.3306 87.7176 20.4536C89.1255 19.7218 90.0421 19.1262 89.755 19.1309C89.4679 19.135 88.2349 19.6403 87.0145 20.2532ZM104.534 19.4305C104.911 19.5814 105.361 19.5626 105.535 19.3893C105.708 19.216 105.4 19.0928 104.85 19.1152C104.242 19.1403 104.118 19.264 104.534 19.4305ZM107.285 19.7818C107.405 19.8841 108.325 20.119 109.33 20.3033C110.615 20.5392 110.925 20.4865 110.374 20.1253C109.666 19.6612 106.768 19.3391 107.285 19.7818ZM89.2366 20.6342C89.0539 20.9297 89.2633 21.0174 89.7278 20.8394C90.632 20.4922 90.7974 20.118 90.0468 20.118C89.7764 20.118 89.412 20.3503 89.2366 20.6342ZM101.402 20.4745C101.779 20.6254 102.229 20.6066 102.403 20.4333C102.576 20.26 102.268 20.1368 101.718 20.1592C101.11 20.1843 100.986 20.308 101.402 20.4745ZM112.505 20.8315C112.625 20.937 113.663 21.1667 114.811 21.3415C116.266 21.5629 116.583 21.5159 115.855 21.1865C114.853 20.7324 112.057 20.4364 112.505 20.8315ZM87.1487 21.6782C86.966 21.9737 87.1753 22.0614 87.6398 21.8834C88.544 21.5362 88.7094 21.162 87.9588 21.162C87.6884 21.162 87.324 21.3943 87.1487 21.6782ZM106.622 21.5185C106.999 21.6694 107.449 21.6506 107.623 21.4773C107.796 21.304 107.488 21.1808 106.938 21.2032C106.33 21.2283 106.206 21.352 106.622 21.5185ZM118.595 22.0295C119.623 22.4445 119.359 23.1534 118.073 23.4295C117.032 23.6535 117.046 23.6723 118.199 23.5966C119.737 23.4953 120.42 21.6589 118.895 21.7252C118.346 21.7487 118.22 21.8782 118.595 22.0295ZM112.602 22.5677C113.11 22.7003 113.815 22.6914 114.168 22.5484C114.522 22.4054 114.106 22.2973 113.245 22.3078C112.384 22.3182 112.095 22.4351 112.602 22.5677ZM89.494 23.772C89.0237 24.0758 88.9589 24.2809 89.3327 24.2861C89.6746 24.2903 90.0995 24.0591 90.277 23.772C90.6774 23.1236 90.4968 23.1236 89.494 23.772ZM102.152 24.1316C102.655 24.2632 103.477 24.2632 103.979 24.1316C104.482 24.0006 104.071 23.8931 103.066 23.8931C102.061 23.8931 101.65 24.0006 102.152 24.1316ZM87.406 24.816C86.9357 25.1198 86.8709 25.3249 87.2447 25.3301C87.5866 25.3343 88.0115 25.1031 88.189 24.816C88.5894 24.1676 88.4088 24.1676 87.406 24.816ZM89.494 25.338C89.0237 25.6418 88.9589 25.8469 89.3327 25.8521C89.6746 25.8563 90.0995 25.6251 90.277 25.338C90.6774 24.6896 90.4968 24.6896 89.494 25.338ZM100.717 25.3134C101.719 25.7676 104.515 26.0635 104.067 25.6684C103.947 25.5629 102.909 25.3333 101.761 25.1584C100.306 24.9371 99.9893 24.9841 100.717 25.3134ZM107.894 25.1756C108.397 25.3072 109.219 25.3072 109.721 25.1756C110.224 25.0446 109.813 24.9371 108.808 24.9371C107.803 24.9371 107.392 25.0446 107.894 25.1756ZM85.3973 25.7999C85.01 26.0453 84.7751 26.6257 84.8753 27.0903C85.0126 27.7277 85.2047 27.616 85.6604 26.6362C85.9924 25.9221 86.2273 25.3416 86.1824 25.3458C86.1375 25.3505 85.7841 25.5546 85.3973 25.7999ZM105.937 26.382C107.372 26.9985 108.196 26.9985 107.242 26.382C106.811 26.1037 106.107 25.8887 105.676 25.9049C105.16 25.9237 105.248 26.086 105.937 26.382ZM113.636 26.2196C114.139 26.3512 114.961 26.3512 115.463 26.2196C115.966 26.0886 115.555 25.9811 114.55 25.9811C113.545 25.9811 113.134 26.0886 113.636 26.2196ZM111.32 27.2605C111.697 27.4114 112.147 27.3926 112.321 27.2193C112.494 27.046 112.186 26.9228 111.636 26.9452C111.028 26.9703 110.904 27.094 111.32 27.2605ZM87.6701 29.4524C86.2362 30.2281 84.9855 31.2637 84.891 31.7544C84.6973 32.7608 85.5821 32.9639 86.1506 32.0431C86.3818 31.6698 86.2941 31.5821 85.9209 31.8134C85.5894 32.018 85.318 31.9862 85.318 31.7429C85.318 31.4997 86.6099 30.6243 88.189 29.7985C89.768 28.9721 91.06 28.2178 91.06 28.1223C91.06 27.7501 90.1773 28.0962 87.6701 29.4524ZM117.062 28.3045C117.439 28.4554 117.889 28.4366 118.063 28.2633C118.236 28.09 117.928 27.9668 117.378 27.9892C116.77 28.0143 116.646 28.138 117.062 28.3045ZM101.5 28.992C102.218 29.2216 103.392 29.4054 104.11 29.4002C105.282 29.3913 105.256 29.3501 103.849 28.992C102.988 28.7727 101.813 28.589 101.239 28.5838C100.421 28.5759 100.477 28.6647 101.5 28.992ZM107.144 29.8705C107.521 30.0214 107.971 30.0026 108.145 29.8293C108.318 29.656 108.01 29.5328 107.46 29.5552C106.852 29.5803 106.728 29.704 107.144 29.8705ZM109.47 30.3977C109.978 30.5303 110.683 30.5214 111.036 30.3784C111.39 30.2354 110.974 30.1273 110.113 30.1378C109.252 30.1482 108.963 30.2651 109.47 30.3977ZM87.6706 31.0742C87.4879 31.3697 87.6973 31.4574 88.1618 31.2794C89.0659 30.9322 89.2314 30.558 88.4808 30.558C88.2104 30.558 87.846 30.7903 87.6706 31.0742ZM104.534 30.9145C104.911 31.0654 105.361 31.0466 105.535 30.8733C105.708 30.7 105.4 30.5768 104.85 30.5992C104.242 30.6243 104.118 30.748 104.534 30.9145ZM112.886 30.9145C113.263 31.0654 113.713 31.0466 113.887 30.8733C114.06 30.7 113.752 30.5768 113.202 30.5992C112.594 30.6243 112.47 30.748 112.886 30.9145ZM111.157 32.124C111.731 32.3709 112.553 32.5724 112.984 32.5724C113.477 32.5724 113.381 32.4069 112.723 32.124C112.149 31.8771 111.327 31.6756 110.896 31.6756C110.403 31.6756 110.499 31.841 111.157 32.124ZM118.628 31.9585C119.005 32.1094 119.455 32.0906 119.629 31.9173C119.802 31.744 119.494 31.6208 118.944 31.6432C118.336 31.6683 118.212 31.792 118.628 31.9585ZM116.899 33.168C118.334 33.7845 119.158 33.7845 118.204 33.168C117.773 32.8897 117.069 32.6747 116.638 32.6909C116.122 32.7097 116.21 32.872 116.899 33.168ZM101.924 34.0465C102.301 34.1974 102.751 34.1786 102.925 34.0053C103.098 33.832 102.79 33.7088 102.24 33.7312C101.632 33.7563 101.508 33.88 101.924 34.0465ZM106.459 34.734C107.033 34.9809 107.855 35.1824 108.286 35.1824C108.779 35.1824 108.683 35.0169 108.025 34.734C107.451 34.4871 106.629 34.2856 106.198 34.2856C105.705 34.2856 105.801 34.451 106.459 34.734ZM85.1442 35.6041C84.5971 36.1512 84.7375 37.344 85.3488 37.344C85.6526 37.344 85.7403 37.083 85.543 36.7635C85.3457 36.4446 85.508 35.9784 85.9037 35.7279C86.2993 35.4768 86.3683 35.2685 86.0577 35.2638C85.7466 35.2596 85.3352 35.4126 85.1442 35.6041ZM112.462 35.754C112.893 36.0458 113.695 36.2874 114.246 36.2921C115.581 36.3026 115.164 36.004 113.245 35.5744C112.101 35.3186 111.89 35.3672 112.462 35.754ZM105.578 36.1345C105.955 36.2854 106.405 36.2666 106.579 36.0933C106.752 35.92 106.444 35.7968 105.894 35.8192C105.286 35.8443 105.162 35.968 105.578 36.1345ZM117.682 36.4999C117.682 36.61 118.152 36.823 118.727 36.9733C119.301 37.1237 119.64 37.0334 119.479 36.7734C119.198 36.3188 117.682 36.088 117.682 36.4999ZM61.187 58.0789C61.2653 69.7706 61.5002 79.5075 61.709 79.7163C61.9183 79.9256 62.0253 70.3599 61.947 58.4594C61.8692 46.5588 61.6343 36.822 61.425 36.822C61.2162 36.8214 61.1092 46.3876 61.187 58.0789ZM63.8184 37.1785C64.1947 37.3294 64.6452 37.3106 64.8185 37.1373C64.9918 36.964 64.6839 36.8408 64.1337 36.8632C63.5255 36.8883 63.4018 37.012 63.8184 37.1785ZM111.32 37.1785C111.697 37.3294 112.147 37.3106 112.321 37.1373C112.494 36.964 112.186 36.8408 111.636 36.8632C111.028 36.8883 110.904 37.012 111.32 37.1785ZM123.815 37.1675C124.326 37.3737 124.468 43.4498 124.468 65.0841C124.468 80.2936 124.644 92.629 124.859 92.4959C125.075 92.3628 125.188 79.7815 125.112 64.5381C124.981 38.6307 124.913 36.8246 124.068 36.8632C123.522 36.8883 123.422 37.0088 123.815 37.1675ZM126.98 37.1785C127.357 37.3294 127.807 37.3106 127.981 37.1373C128.154 36.964 127.846 36.8408 127.296 36.8632C126.688 36.8883 126.564 37.012 126.98 37.1785ZM66.4284 37.7005C66.8047 37.8514 67.2552 37.8326 67.4285 37.6593C67.6018 37.486 67.2939 37.3628 66.7437 37.3852C66.1355 37.4103 66.0118 37.534 66.4284 37.7005ZM91.1425 38.388C91.1425 39.1057 91.261 39.3996 91.4056 39.0405C91.5507 38.6819 91.5507 38.0946 91.4056 37.7355C91.261 37.3769 91.1425 37.6702 91.1425 38.388ZM113.93 37.7005C114.307 37.8514 114.757 37.8326 114.931 37.6593C115.104 37.486 114.796 37.3628 114.246 37.3852C113.638 37.4103 113.514 37.534 113.93 37.7005ZM69.5275 38.2115C69.8866 38.3567 70.4739 38.3567 70.8325 38.2115C71.1916 38.0669 70.8977 37.9484 70.18 37.9484C69.4622 37.9484 69.1689 38.0669 69.5275 38.2115ZM117.062 38.2225C117.439 38.3734 117.889 38.3546 118.063 38.1813C118.236 38.008 117.928 37.8848 117.378 37.9072C116.77 37.9323 116.646 38.056 117.062 38.2225ZM133.244 38.2225C133.621 38.3734 134.071 38.3546 134.245 38.1813C134.418 38.008 134.11 37.8848 133.56 37.9072C132.952 37.9323 132.828 38.056 133.244 38.2225ZM54.6505 39.0248L53.476 39.5917L53.5997 58.4343L53.7234 77.277L53.8675 58.5873L54.011 39.8981L55.7013 39.1637C56.6304 38.7596 57.0386 38.4355 56.608 38.4438C56.1773 38.4522 55.2967 38.7137 54.6505 39.0248ZM72.9205 38.7476C73.4232 38.8792 74.2448 38.8792 74.7475 38.7476C75.2502 38.6166 74.8388 38.5091 73.834 38.5091C72.8291 38.5091 72.4178 38.6166 72.9205 38.7476ZM100.88 38.7445C101.257 38.8954 101.707 38.8766 101.881 38.7033C102.054 38.53 101.746 38.4068 101.196 38.4292C100.588 38.4543 100.464 38.578 100.88 38.7445ZM136.614 38.7497C137.122 38.8823 137.827 38.8734 138.18 38.7304C138.534 38.5874 138.118 38.4793 137.257 38.4898C136.396 38.5002 136.107 38.6171 136.614 38.7497ZM76.3464 39.2665C76.7227 39.4174 77.1732 39.3986 77.3465 39.2253C77.5198 39.052 77.2119 38.9288 76.6617 38.9512C76.0535 38.9763 75.9298 39.1 76.3464 39.2665ZM139.508 39.2665C139.885 39.4174 140.335 39.3986 140.509 39.2253C140.682 39.052 140.374 38.9288 139.824 38.9512C139.216 38.9763 139.092 39.1 139.508 39.2665ZM79.9675 39.8094L81.664 40.0203V63.0358C81.664 86.0189 81.6656 86.0502 82.708 85.107C83.2822 84.5876 83.7332 83.9048 83.7108 83.5906C83.6867 83.2607 83.5583 83.2946 83.4064 83.6715C83.2613 84.0306 82.9278 84.324 82.6647 84.324C82.0383 84.324 82.0424 72.0277 82.6694 69.8421C82.9455 68.8796 82.9565 68.0344 82.6944 67.8726C82.4423 67.7165 82.2215 61.4614 82.2043 53.9718C82.1865 46.4821 82.044 40.1471 81.8874 39.8934C81.7308 39.6397 80.8528 39.4696 79.9367 39.5155L78.271 39.599L79.9675 39.8094ZM86.1047 39.9482C85.922 40.2437 86.1313 40.3314 86.5958 40.1534C87.5 39.8062 87.6654 39.432 86.9148 39.432C86.6444 39.432 86.28 39.6643 86.1047 39.9482ZM88.45 40.215C87.7322 40.6253 87.3799 40.9609 87.667 40.9609C87.9541 40.9609 88.7762 40.6253 89.494 40.215C90.2117 39.8047 90.5641 39.469 90.277 39.469C89.9899 39.469 89.1677 39.8047 88.45 40.215ZM107.144 39.7885C107.521 39.9394 107.971 39.9206 108.145 39.7473C108.318 39.574 108.01 39.4508 107.46 39.4732C106.852 39.4983 106.728 39.622 107.144 39.7885ZM143.253 39.7253L144.813 40.0192L144.96 58.6478L145.107 77.277L145.097 58.485L145.087 39.693L143.39 39.5625C141.73 39.4346 141.727 39.4382 143.253 39.7253ZM84.796 41.1718C84.796 41.6557 85.2016 42.0383 85.7095 42.0341C86.231 42.0294 86.3991 41.8588 86.101 41.6364C85.8139 41.4224 85.4026 41.034 85.1875 40.7746C84.9724 40.5146 84.796 40.6936 84.796 41.1718ZM102.935 40.8215C103.295 40.9667 103.882 40.9667 104.24 40.8215C104.6 40.6769 104.306 40.5584 103.588 40.5584C102.87 40.5584 102.577 40.6769 102.935 40.8215ZM105.581 41.1118C105.859 41.39 106.523 41.5257 107.056 41.4124C107.774 41.2605 107.642 41.129 106.55 40.9066C105.597 40.7119 105.254 40.785 105.581 41.1118ZM113.408 40.8325C113.785 40.9834 114.235 40.9646 114.409 40.7913C114.582 40.618 114.274 40.4948 113.724 40.5172C113.116 40.5423 112.992 40.666 113.408 40.8325ZM116.421 41.7084C116.599 42.1725 116.341 42.5692 115.763 42.719C114.999 42.9163 115.044 42.9769 115.985 43.0254C117.18 43.087 117.633 41.8744 116.644 41.2626C116.355 41.0841 116.257 41.2798 116.421 41.7084ZM109.46 41.8796C109.963 42.0112 110.785 42.0112 111.287 41.8796C111.79 41.7486 111.379 41.6411 110.374 41.6411C109.369 41.6411 108.958 41.7486 109.46 41.8796ZM91.0167 42.1725C90.739 43.0045 90.8089 44.546 91.1158 44.3565C91.3356 44.2208 91.4807 43.644 91.4379 43.0755C91.3706 42.1876 91.1613 41.7382 91.0167 42.1725ZM87.928 43.869C87.2102 44.2793 86.8579 44.6149 87.145 44.6149C87.4321 44.6149 88.2542 44.2793 88.972 43.869C89.6897 43.4587 90.0421 43.123 89.755 43.123C89.4679 43.123 88.6457 43.4587 87.928 43.869ZM100.456 43.584C100.887 43.8758 101.689 44.1174 102.24 44.1221C103.575 44.1326 103.158 43.834 101.239 43.4044C100.095 43.1486 99.8844 43.1972 100.456 43.584ZM122.513 44.1107C121.978 44.9678 122 45.0868 122.649 44.8378C123.075 44.6744 123.424 44.213 123.424 43.8131C123.424 42.8448 123.273 42.8944 122.513 44.1107ZM129.949 43.608C130.126 43.8951 130.786 44.1133 131.415 44.0934C132.518 44.0579 132.521 44.0407 131.515 43.608C130.078 42.9904 129.567 42.9904 129.949 43.608ZM69.1793 44.3184C69.2994 44.4218 70.454 44.6462 71.746 44.8174C73.3146 45.0247 73.7479 44.974 73.051 44.6655C72.054 44.2239 68.7262 43.9259 69.1793 44.3184ZM104.762 44.4896C105.265 44.6212 106.087 44.6212 106.589 44.4896C107.092 44.3586 106.681 44.2511 105.676 44.2511C104.671 44.2511 104.26 44.3586 104.762 44.4896ZM118.987 44.652C118.81 44.9391 118.927 45.174 119.248 45.174C119.569 45.174 119.672 45.4324 119.477 45.7482C119.228 46.1517 119.451 46.1459 120.229 45.7299C120.838 45.4037 121.336 45.0142 121.336 44.8639C121.336 44.7136 121.101 44.7355 120.814 44.913C120.527 45.0905 120.292 44.9866 120.292 44.6828C120.292 43.9828 119.413 43.9619 118.987 44.652ZM88.2193 45.1254C88.058 45.3854 88.3967 45.4757 88.9715 45.3253C90.1903 45.0064 90.3443 44.652 89.2638 44.652C88.8498 44.652 88.38 44.8649 88.2193 45.1254ZM108.188 45.0085C108.565 45.1594 109.015 45.1406 109.189 44.9673C109.362 44.794 109.054 44.6708 108.504 44.6932C107.896 44.7183 107.772 44.842 108.188 45.0085ZM137.27 45.1948C137.487 45.5451 137.081 45.6333 136.126 45.4438C134.698 45.1599 134.691 45.1688 135.915 45.7017C136.905 46.1324 137.36 46.0775 137.985 45.4527C138.704 44.7329 138.692 44.652 137.86 44.652C137.351 44.652 137.085 44.8963 137.27 45.1948ZM69.919 45.6824C70.916 46.124 74.2438 46.4221 73.7907 46.0295C73.6711 45.9262 72.5159 45.7017 71.224 45.5305C69.6554 45.3233 69.2221 45.3739 69.919 45.6824ZM76.0525 45.5336C76.5552 45.6652 77.3768 45.6652 77.8795 45.5336C78.3822 45.4026 77.9708 45.2951 76.966 45.2951C75.9611 45.2951 75.5498 45.4026 76.0525 45.5336ZM84.796 46.2488C84.796 46.8397 85.0204 47.1847 85.295 47.0151C85.5696 46.8454 85.662 46.3615 85.5002 45.9403C85.0862 44.8613 84.796 44.9881 84.796 46.2488ZM101.924 45.5305C102.301 45.6814 102.751 45.6626 102.925 45.4893C103.098 45.316 102.79 45.1928 102.24 45.2152C101.632 45.2403 101.508 45.364 101.924 45.5305ZM111.548 45.5336C112.051 45.6652 112.873 45.6652 113.375 45.5336C113.878 45.4026 113.467 45.2951 112.462 45.2951C111.457 45.2951 111.046 45.4026 111.548 45.5336ZM104.24 46.0556C104.743 46.1872 105.565 46.1872 106.067 46.0556C106.57 45.9246 106.159 45.8171 105.154 45.8171C104.149 45.8171 103.738 45.9246 104.24 46.0556ZM75.8244 46.5745C76.2007 46.7254 76.6512 46.7066 76.8245 46.5333C76.9978 46.36 76.6899 46.2368 76.1397 46.2592C75.5315 46.2843 75.4078 46.408 75.8244 46.5745ZM108.188 46.5745C108.565 46.7254 109.015 46.7066 109.189 46.5333C109.362 46.36 109.054 46.2368 108.504 46.2592C107.896 46.2843 107.772 46.408 108.188 46.5745ZM116.679 46.8214C116.65 47.429 116.289 47.6201 115.463 47.4635C114.379 47.2578 114.369 47.2771 115.333 47.714C116.524 48.2543 117.412 47.69 116.999 46.6554C116.802 46.1626 116.708 46.2112 116.679 46.8214ZM78.1405 47.0996C78.6432 47.2312 79.4648 47.2312 79.9675 47.0996C80.4702 46.9686 80.0588 46.8611 79.054 46.8611C78.0491 46.8611 77.6378 46.9686 78.1405 47.0996ZM110.514 47.1017C111.022 47.2343 111.727 47.2254 112.08 47.0824C112.434 46.9394 112.018 46.8313 111.157 46.8418C110.296 46.8522 110.007 46.9691 110.514 47.1017ZM130.112 47.6185C130.489 47.7694 130.939 47.7506 131.113 47.5773C131.286 47.404 130.978 47.2808 130.428 47.3032C129.82 47.3283 129.696 47.452 130.112 47.6185ZM120.814 47.9891C120.814 48.1019 121.178 48.3342 121.624 48.5054C122.089 48.6834 122.298 48.5957 122.115 48.3002C121.809 47.8038 120.814 47.5663 120.814 47.9891ZM70.0558 48.675C70.7051 48.7998 71.6447 48.7951 72.1438 48.6646C72.6428 48.5341 72.1114 48.4318 70.963 48.4375C69.8146 48.4433 69.4064 48.5503 70.0558 48.675ZM100.325 48.6515C100.685 48.7966 101.272 48.7966 101.63 48.6515C101.99 48.5069 101.696 48.3884 100.978 48.3884C100.26 48.3884 99.9669 48.5069 100.325 48.6515ZM74.878 49.3244C76.182 49.7676 79.4215 50.0448 79.0107 49.6778C78.8911 49.5713 77.6185 49.3479 76.183 49.1824C74.4228 48.9788 73.9979 49.0253 74.878 49.3244ZM85.9705 49.3662C85.3216 49.6272 84.8231 50.2546 84.8565 50.7688C84.9134 51.64 84.9322 51.641 85.1556 50.7855C85.2872 50.2828 85.7158 49.872 86.1083 49.872C86.5014 49.872 86.9675 49.6371 87.145 49.35C87.5193 48.745 87.5167 48.745 85.9705 49.3662ZM104.371 49.3364C105.368 49.778 108.696 50.0761 108.243 49.6835C108.123 49.5802 106.968 49.3557 105.676 49.1845C104.107 48.9773 103.674 49.0279 104.371 49.3364ZM70.6044 49.7065C70.9807 49.8574 71.4312 49.8386 71.6045 49.6653C71.7778 49.492 71.4699 49.3688 70.9197 49.3912C70.3115 49.4163 70.1878 49.54 70.6044 49.7065ZM110.635 50.3903C111.633 50.8225 115.481 51.1185 115.029 50.7286C114.909 50.6252 113.636 50.4055 112.201 50.2395C110.522 50.0453 109.963 50.099 110.635 50.3903ZM77.3904 50.7505C77.7667 50.9014 78.2172 50.8826 78.3905 50.7093C78.5638 50.536 78.2559 50.4128 77.7057 50.4352C77.0975 50.4603 76.9738 50.584 77.3904 50.7505ZM102.413 50.7395C102.773 50.8847 103.36 50.8847 103.718 50.7395C104.078 50.5949 103.784 50.4764 103.066 50.4764C102.348 50.4764 102.055 50.5949 102.413 50.7395ZM116.432 51.6536C116.598 52.0868 116.323 52.4919 115.763 52.637C114.999 52.8343 115.044 52.8949 115.985 52.9434C116.832 52.9873 117.16 52.7127 117.16 51.96C117.16 51.3858 116.932 50.916 116.654 50.916C116.376 50.916 116.276 51.248 116.432 51.6536ZM59.7812 52.2643C59.8063 52.8724 59.93 52.9961 60.0965 52.5801C60.2474 52.2032 60.2286 51.7527 60.0553 51.5794C59.882 51.4061 59.7588 51.7141 59.7812 52.2643ZM66.9504 51.7945C67.3267 51.9454 67.7772 51.9266 67.9505 51.7533C68.1238 51.58 67.8159 51.4568 67.2657 51.4792C66.6575 51.5043 66.5338 51.628 66.9504 51.7945ZM109.232 51.7945C109.609 51.9454 110.059 51.9266 110.233 51.7533C110.406 51.58 110.098 51.4568 109.548 51.4792C108.94 51.5043 108.816 51.628 109.232 51.7945ZM69.5275 52.3055C69.8866 52.4507 70.4739 52.4507 70.8325 52.3055C71.1916 52.1609 70.8977 52.0424 70.18 52.0424C69.4622 52.0424 69.1689 52.1609 69.5275 52.3055ZM113.408 52.3165C113.785 52.4674 114.235 52.4486 114.409 52.2753C114.582 52.102 114.274 51.9788 113.724 52.0012C113.116 52.0263 112.992 52.15 113.408 52.3165ZM70.18 53.526C71.9647 54.0976 73.3371 54.0976 72.007 53.526C71.4328 53.2791 70.4932 53.0844 69.919 53.0927C69.0796 53.1052 69.1308 53.1898 70.18 53.526ZM76.3464 53.3605C76.7227 53.5114 77.1732 53.4926 77.3465 53.3193C77.5198 53.146 77.2119 53.0228 76.6617 53.0452C76.0535 53.0703 75.9298 53.194 76.3464 53.3605ZM90.799 53.526C90.6215 53.8131 90.7254 54.048 91.0292 54.048C91.333 54.048 91.582 53.8131 91.582 53.526C91.582 53.2389 91.4786 53.004 91.3518 53.004C91.2249 53.004 90.9765 53.2389 90.799 53.526ZM54.5612 54.3523C54.5863 54.9604 54.71 55.0841 54.8765 54.6681C55.0274 54.2912 55.0086 53.8407 54.8353 53.6674C54.662 53.4941 54.5388 53.8021 54.5612 54.3523ZM86.362 54.048C85.8917 54.3518 85.8269 54.5569 86.2007 54.5621C86.5426 54.5663 86.9675 54.3351 87.145 54.048C87.5454 53.3996 87.3648 53.3996 86.362 54.048ZM75.7915 54.3935C76.1506 54.5387 76.7379 54.5387 77.0965 54.3935C77.4556 54.2489 77.1617 54.1304 76.444 54.1304C75.7262 54.1304 75.4329 54.2489 75.7915 54.3935ZM88.7146 54.5642C88.532 54.8597 88.7413 54.9474 89.2058 54.7694C90.11 54.4222 90.2754 54.048 89.5248 54.048C89.2544 54.048 88.89 54.2803 88.7146 54.5642ZM104.534 54.4045C104.911 54.5554 105.361 54.5366 105.535 54.3633C105.708 54.19 105.4 54.0668 104.85 54.0892C104.242 54.1143 104.118 54.238 104.534 54.4045ZM78.4344 54.9265C78.8107 55.0774 79.2612 55.0586 79.4345 54.8853C79.6078 54.712 79.2999 54.5888 78.7497 54.6112C78.1415 54.6363 78.0178 54.76 78.4344 54.9265ZM84.8372 55.3963C84.8623 56.0044 84.986 56.1281 85.1525 55.7121C85.3034 55.3352 85.2846 54.8847 85.1113 54.7114C84.938 54.5381 84.8148 54.8461 84.8372 55.3963ZM86.1047 55.6082C85.922 55.9037 86.1313 55.9914 86.5958 55.8134C87.5 55.4662 87.6654 55.092 86.9148 55.092C86.6444 55.092 86.28 55.3243 86.1047 55.6082ZM101.924 55.4485C102.301 55.5994 102.751 55.5806 102.925 55.4073C103.098 55.234 102.79 55.1108 102.24 55.1332C101.632 55.1583 101.508 55.282 101.924 55.4485ZM110.765 55.4375C111.125 55.5827 111.712 55.5827 112.07 55.4375C112.43 55.2929 112.136 55.1744 111.418 55.1744C110.7 55.1744 110.407 55.2929 110.765 55.4375ZM70.6044 56.4925C70.9807 56.6434 71.4312 56.6246 71.6045 56.4513C71.7778 56.278 71.4699 56.1548 70.9197 56.1772C70.3115 56.2023 70.1878 56.326 70.6044 56.4925ZM108.188 56.4925C108.565 56.6434 109.015 56.6246 109.189 56.4513C109.362 56.278 109.054 56.1548 108.504 56.1772C107.896 56.2023 107.772 56.326 108.188 56.4925ZM116.679 56.9623C116.704 57.5704 116.828 57.6941 116.995 57.2781C117.145 56.9012 117.127 56.4507 116.953 56.2774C116.78 56.1041 116.657 56.4121 116.679 56.9623ZM75.922 57.18C77.7067 57.7516 79.079 57.7516 77.749 57.18C77.1748 56.9331 76.2352 56.7384 75.661 56.7467C74.8216 56.7592 74.8728 56.8438 75.922 57.18ZM90.538 57.18C90.0677 57.4838 90.0029 57.6889 90.3767 57.6941C90.7186 57.6983 91.1435 57.4671 91.321 57.18C91.7214 56.5316 91.5408 56.5316 90.538 57.18ZM70.5715 57.5255C70.9306 57.6707 71.5179 57.6707 71.8765 57.5255C72.2356 57.3809 71.9417 57.2624 71.224 57.2624C70.5062 57.2624 70.2129 57.3809 70.5715 57.5255ZM114.419 57.5255C114.779 57.6707 115.366 57.6707 115.724 57.5255C116.084 57.3809 115.79 57.2624 115.072 57.2624C114.354 57.2624 114.061 57.3809 114.419 57.5255ZM77.3904 58.5805C77.7667 58.7314 78.2172 58.7126 78.3905 58.5393C78.5638 58.366 78.2559 58.2428 77.7057 58.2652C77.0975 58.2903 76.9738 58.414 77.3904 58.5805ZM85.4485 59.0915C85.0899 59.2367 84.8148 59.8641 84.8372 60.4858C84.8649 61.239 84.9719 61.3554 85.1583 60.834C85.3122 60.4033 85.8082 59.7576 86.2607 59.3985C87.0829 58.7465 86.6804 58.5946 85.4485 59.0915ZM104.012 59.1025C104.389 59.2534 104.839 59.2346 105.013 59.0613C105.186 58.888 104.878 58.7648 104.328 58.7872C103.72 58.8123 103.596 58.936 104.012 59.1025ZM106.1 59.6245C106.477 59.7754 106.927 59.7566 107.101 59.5833C107.274 59.41 106.966 59.2868 106.416 59.3092C105.808 59.3343 105.684 59.458 106.1 59.6245ZM69.5275 60.1355C69.8866 60.2807 70.4739 60.2807 70.8325 60.1355C71.1916 59.9909 70.8977 59.8724 70.18 59.8724C69.4622 59.8724 69.1689 59.9909 69.5275 60.1355ZM86.1313 60.2634C85.97 60.5234 86.3087 60.6137 86.8835 60.4633C88.1023 60.1444 88.2563 59.79 87.1758 59.79C86.7618 59.79 86.292 60.0029 86.1313 60.2634ZM101.239 60.312C102.1 60.5312 103.275 60.715 103.849 60.7202C104.667 60.728 104.611 60.6393 103.588 60.312C102.87 60.0823 101.696 59.8985 100.978 59.9038C99.8056 59.9126 99.8322 59.9539 101.239 60.312ZM110.276 60.1465C110.653 60.2974 111.103 60.2786 111.277 60.1053C111.45 59.932 111.142 59.8088 110.592 59.8312C109.984 59.8563 109.86 59.98 110.276 60.1465ZM68.2225 61.1936C68.7252 61.3252 69.5468 61.3252 70.0495 61.1936C70.5522 61.0626 70.1408 60.9551 69.136 60.9551C68.1311 60.9551 67.7198 61.0626 68.2225 61.1936ZM76.3464 61.1905C76.7227 61.3414 77.1732 61.3226 77.3465 61.1493C77.5198 60.976 77.2119 60.8528 76.6617 60.8752C76.0535 60.9003 75.9298 61.024 76.3464 61.1905ZM106.328 61.1936C106.831 61.3252 107.653 61.3252 108.155 61.1936C108.658 61.0626 108.247 60.9551 107.242 60.9551C106.237 60.9551 105.826 61.0626 106.328 61.1936ZM116.413 61.4144C116.61 61.7334 116.448 62.1995 116.052 62.4501C115.483 62.8108 115.524 62.9079 116.246 62.9141C116.814 62.9188 117.16 62.5273 117.16 61.878C117.16 61.3038 116.911 60.834 116.607 60.834C116.303 60.834 116.216 61.095 116.413 61.4144ZM134.288 61.1905C134.665 61.3414 135.115 61.3226 135.289 61.1493C135.462 60.976 135.154 60.8528 134.604 60.8752C133.996 60.9003 133.872 61.024 134.288 61.1905ZM71.6484 61.7125C72.0247 61.8634 72.4752 61.8446 72.6485 61.6713C72.8218 61.498 72.5139 61.3748 71.9637 61.3972C71.3555 61.4223 71.2318 61.546 71.6484 61.7125ZM75.0085 62.2376C75.5112 62.3692 76.3328 62.3692 76.8355 62.2376C77.3382 62.1066 76.9268 61.9991 75.922 61.9991C74.9171 61.9991 74.5058 62.1066 75.0085 62.2376ZM112.592 62.2376C113.095 62.3692 113.917 62.3692 114.419 62.2376C114.922 62.1066 114.511 61.9991 113.506 61.9991C112.501 61.9991 112.09 62.1066 112.592 62.2376ZM78.4344 62.7565C78.8107 62.9074 79.2612 62.8886 79.4345 62.7153C79.6078 62.542 79.2999 62.4188 78.7497 62.4412C78.1415 62.4663 78.0178 62.59 78.4344 62.7565ZM87.928 62.922C86.9738 63.5385 87.798 63.5385 89.233 62.922C89.9215 62.626 90.0103 62.4637 89.494 62.4449C89.0633 62.4287 88.3586 62.6437 87.928 62.922ZM66.5693 63.6382C66.6894 63.7446 67.9615 63.9681 69.397 64.1335C71.1572 64.3371 71.5821 64.2907 70.702 63.9915C69.398 63.5484 66.1585 63.2712 66.5693 63.6382ZM85.1442 63.7921C84.3784 64.5574 84.8565 65.5288 85.9705 65.4714C86.8542 65.426 86.919 65.3519 86.2315 65.1723C85.7288 65.0408 85.318 64.7328 85.318 64.488C85.318 64.2432 85.7288 63.9352 86.2315 63.8036C86.9633 63.6126 86.9806 63.5531 86.3187 63.5045C85.864 63.4711 85.3352 63.6006 85.1442 63.7921ZM102.162 63.8057C102.67 63.9383 103.375 63.9294 103.728 63.7864C104.082 63.6434 103.666 63.5353 102.805 63.5458C101.944 63.5562 101.655 63.6731 102.162 63.8057ZM88.8744 64.3225C89.2507 64.4734 89.7012 64.4546 89.8745 64.2813C90.0478 64.108 89.7399 63.9848 89.1897 64.0072C88.5815 64.0323 88.4578 64.156 88.8744 64.3225ZM105.023 64.3115C105.383 64.4567 105.97 64.4567 106.328 64.3115C106.688 64.1669 106.394 64.0485 105.676 64.0485C104.958 64.0485 104.665 64.1669 105.023 64.3115ZM73.3553 64.6785C73.4754 64.7829 74.8649 65.0021 76.444 65.1655C78.2976 65.3576 78.8525 65.3086 78.01 65.0277C76.7165 64.596 72.9372 64.3126 73.3553 64.6785ZM108.948 64.8497C109.456 64.9823 110.161 64.9734 110.514 64.8304C110.868 64.6874 110.452 64.5793 109.591 64.5898C108.73 64.6002 108.441 64.7171 108.948 64.8497ZM69.5338 65.379C70.1831 65.5038 71.1227 65.4991 71.6218 65.3686C72.1208 65.2381 71.5894 65.1358 70.441 65.1415C69.2926 65.1473 68.8844 65.2543 69.5338 65.379ZM102.152 65.3696C102.655 65.5012 103.477 65.5012 103.979 65.3696C104.482 65.2386 104.071 65.1311 103.066 65.1311C102.061 65.1311 101.65 65.2386 102.152 65.3696ZM111.842 65.3665C112.219 65.5174 112.669 65.4986 112.843 65.3253C113.016 65.152 112.708 65.0288 112.158 65.0512C111.55 65.0763 111.426 65.2 111.842 65.3665ZM115.463 65.8775C115.823 66.0227 116.41 66.0227 116.768 65.8775C117.128 65.7329 116.834 65.6144 116.116 65.6144C115.398 65.6144 115.105 65.7329 115.463 65.8775ZM76.3198 66.423C76.9691 66.5478 77.9087 66.5431 78.4078 66.4126C78.9068 66.2821 78.3754 66.1798 77.227 66.1855C76.0786 66.1913 75.6704 66.2983 76.3198 66.423ZM107.894 66.4136C108.397 66.5452 109.219 66.5452 109.721 66.4136C110.224 66.2826 109.813 66.1751 108.808 66.1751C107.803 66.1751 107.392 66.2826 107.894 66.4136ZM112.364 66.9325C112.741 67.0834 113.191 67.0646 113.365 66.8913C113.538 66.718 113.23 66.5948 112.68 66.6172C112.072 66.6423 111.948 66.766 112.364 66.9325ZM115.333 67.098L113.767 67.4963L115.172 67.5584C115.944 67.5923 116.722 67.3851 116.899 67.098C117.076 66.8109 117.149 66.6036 117.06 66.6376C116.972 66.6715 116.194 66.8787 115.333 67.098ZM68.4898 67.989C69.1391 68.1138 70.0787 68.1091 70.5778 67.9786C71.0768 67.8481 70.5454 67.7458 69.397 67.7515C68.2486 67.7573 67.8404 67.8643 68.4898 67.989ZM87.8304 67.9765C88.2067 68.1274 88.6572 68.1086 88.8305 67.9353C89.0038 67.762 88.6959 67.6388 88.1457 67.6612C87.5375 67.6863 87.4138 67.81 87.8304 67.9765ZM90.799 68.142C90.6215 68.4291 90.7254 68.664 91.0292 68.664C91.333 68.664 91.582 68.4291 91.582 68.142C91.582 67.8549 91.4786 67.62 91.3518 67.62C91.2249 67.62 90.9765 67.8549 90.799 68.142ZM68.614 69.186C69.3317 69.4156 70.3888 69.6041 70.963 69.6041C71.7898 69.6041 71.7356 69.5169 70.702 69.186C69.9842 68.9563 68.9272 68.7679 68.353 68.7679C67.5261 68.7679 67.5804 68.855 68.614 69.186ZM75.0085 69.0236C75.5112 69.1552 76.3328 69.1552 76.8355 69.0236C77.3382 68.8926 76.9268 68.7851 75.922 68.7851C74.9171 68.7851 74.5058 68.8926 75.0085 69.0236ZM84.796 69.447C84.796 69.8776 85.2068 70.2112 85.7095 70.1887C86.2607 70.1637 86.363 70.0426 85.9674 69.8834C85.6067 69.7377 85.4443 69.4042 85.6067 69.1416C85.769 68.879 85.6526 68.664 85.3488 68.664C85.045 68.664 84.796 69.0163 84.796 69.447ZM87.928 69.186C87.4973 69.4642 87.3799 69.6918 87.667 69.6918C87.9541 69.6918 88.5413 69.4642 88.972 69.186C89.4026 68.9077 89.5201 68.6802 89.233 68.6802C88.9459 68.6802 88.3586 68.9077 87.928 69.186ZM99.934 68.8613C99.934 68.9693 100.345 69.3807 100.847 69.7748C101.675 70.4236 101.694 70.4054 101.045 69.5775C100.363 68.7078 99.934 68.4317 99.934 68.8613ZM103.718 69.0236C104.221 69.1552 105.043 69.1552 105.545 69.0236C106.048 68.8926 105.637 68.7851 104.632 68.7851C103.627 68.7851 103.216 68.8926 103.718 69.0236ZM134.81 69.0205C135.187 69.1714 135.637 69.1526 135.811 68.9793C135.984 68.806 135.676 68.6828 135.126 68.7052C134.518 68.7303 134.394 68.854 134.81 69.0205ZM75.4 70.2044C76.7039 70.6476 79.9435 70.9248 79.5327 70.5578C79.4131 70.4513 78.1405 70.2279 76.705 70.0624C74.9448 69.8588 74.5199 69.9053 75.4 70.2044ZM109.982 70.0676C110.485 70.1992 111.307 70.1992 111.809 70.0676C112.312 69.9366 111.901 69.8291 110.896 69.8291C109.891 69.8291 109.48 69.9366 109.982 70.0676ZM114.452 70.5865C114.829 70.7374 115.279 70.7186 115.453 70.5453C115.626 70.372 115.318 70.2488 114.768 70.2712C114.16 70.2963 114.036 70.42 114.452 70.5865ZM107.144 71.1085C107.521 71.2594 107.971 71.2406 108.145 71.0673C108.318 70.894 108.01 70.7708 107.46 70.7932C106.852 70.8183 106.728 70.942 107.144 71.1085ZM116.449 71.535C116.615 71.9656 116.842 72.318 116.955 72.318C117.068 72.318 117.16 71.9656 117.16 71.535C117.16 71.1043 116.932 70.752 116.654 70.752C116.376 70.752 116.284 71.1043 116.449 71.535ZM67.309 71.7923C68.3065 72.2245 72.1552 72.5205 71.7027 72.1306C71.5831 72.0272 70.3105 71.8074 68.875 71.6415C67.1957 71.4473 66.6372 71.501 67.309 71.7923ZM87.406 72.6119C86.4011 72.9919 85.9146 73.3166 86.3249 73.3327C86.7352 73.3489 87.8638 73.0754 88.8331 72.7246C90.3052 72.1927 90.6748 72.2141 91.0804 72.8551C91.4875 73.4993 91.5674 73.4752 91.5742 72.7095C91.5836 71.6232 90.1105 71.5887 87.406 72.6119ZM99.0435 72.1342C98.3696 72.4078 101.762 75.6927 102.762 75.7345C103.073 75.7475 103.268 76.0414 103.196 76.387C103.125 76.733 103.36 76.957 103.718 76.8855C104.078 76.814 104.325 77.0097 104.27 77.3203C104.214 77.6314 104.517 77.8861 104.943 77.8861C105.425 77.8861 104.99 77.1397 103.79 75.9114C102.73 74.8257 101.722 73.9529 101.551 73.9722C100.546 74.086 100.297 73.7947 100.978 73.3046C101.643 72.8264 101.626 72.7846 100.864 73.0289C99.8259 73.362 99.08 72.5383 100.061 72.1426C100.422 71.9975 100.482 71.8784 100.195 71.8784C99.9079 71.8784 99.3895 71.9933 99.0435 72.1342ZM113.408 72.1525C113.785 72.3034 114.235 72.2846 114.409 72.1113C114.582 71.938 114.274 71.8148 113.724 71.8372C113.116 71.8623 112.992 71.986 113.408 72.1525ZM74.356 72.8222C75.6495 73.2539 79.4288 73.5374 79.0107 73.1714C78.8911 73.067 77.501 72.8478 75.922 72.6844C74.0684 72.4923 73.5135 72.5414 74.356 72.8222ZM68.5164 73.1965C68.8927 73.3474 69.3432 73.3286 69.5165 73.1553C69.6898 72.982 69.3819 72.8588 68.8317 72.8812C68.2235 72.9063 68.0998 73.03 68.5164 73.1965ZM84.8038 74.2264C84.7976 75.1342 85.021 75.2934 85.9569 75.0486C86.7744 74.8351 86.8903 74.6717 86.3484 74.4973C85.9251 74.3611 85.4062 73.991 85.1953 73.6752C84.9724 73.3416 84.8085 73.5723 84.8038 74.2264ZM75.2695 74.2295C75.6286 74.3746 76.2159 74.3746 76.5745 74.2295C76.9336 74.0849 76.6397 73.9664 75.922 73.9664C75.2042 73.9664 74.9109 74.0849 75.2695 74.2295ZM95.3446 74.667C95.4286 75.2412 95.2402 75.6645 94.9264 75.6076C94.6127 75.5512 93.3302 76.5493 92.0774 77.8261C90.8241 79.1034 90.0964 80.148 90.4602 80.148C90.8241 80.148 90.9739 80.3865 90.7938 80.6783C90.6132 80.9701 90.2415 81.0703 89.9669 80.9007C89.6929 80.731 89.5326 80.9033 89.6114 81.2838C89.6908 81.6665 89.4053 81.8972 88.972 81.8011C88.5413 81.7051 88.3633 81.8011 88.5758 82.0141C89.0341 82.4719 87.9807 83.8959 87.4337 83.5582C87.2269 83.4303 87.0578 83.6783 87.0578 84.1094C87.0578 84.5871 87.9238 84.0426 89.2779 82.7141C90.7029 81.3157 91.3868 80.2466 91.1884 79.7293C90.9639 79.1447 91.1122 79.0121 91.7255 79.2475C92.3519 79.4882 92.4882 79.3519 92.2475 78.7255C92.0074 78.0991 92.1431 77.9634 92.7695 78.2035C93.3949 78.4436 93.5322 78.3079 93.2936 77.6867C93.0994 77.1809 93.184 76.9768 93.5056 77.1752C94.3971 77.7264 96.3207 75.3054 95.7121 74.3981C95.2903 73.7691 95.2214 73.8198 95.3446 74.667ZM106.198 75.189C106.872 75.9067 107.794 76.4752 108.246 76.4527C108.952 76.4172 108.957 76.3703 108.286 76.1218C106.684 75.5288 106.088 74.7975 106.826 74.3298C107.288 74.0359 107.102 73.8975 106.238 73.8918L104.972 73.884L106.198 75.189ZM108.677 74.7515C109.037 74.8967 109.624 74.8967 109.982 74.7515C110.342 74.6069 110.048 74.4884 109.33 74.4884C108.612 74.4884 108.319 74.6069 108.677 74.7515ZM67.4724 75.8065C67.8487 75.9574 68.2992 75.9386 68.4725 75.7653C68.6458 75.592 68.3379 75.4688 67.7877 75.4912C67.1795 75.5163 67.0558 75.64 67.4724 75.8065ZM115.693 75.8034C116.177 75.9318 116.678 76.4329 116.807 76.9173C116.971 77.5422 117.057 77.4565 117.099 76.6245C117.146 75.7204 116.89 75.4641 115.985 75.5105C115.153 75.5533 115.068 75.6389 115.693 75.8034ZM66.9175 76.8395C67.2766 76.9846 67.8639 76.9846 68.2225 76.8395C68.5816 76.6949 68.2877 76.5764 67.57 76.5764C66.8522 76.5764 66.5589 76.6949 66.9175 76.8395ZM74.2255 76.8395C74.5846 76.9846 75.1719 76.9846 75.5305 76.8395C75.8896 76.6949 75.5957 76.5764 74.878 76.5764C74.1602 76.5764 73.8669 76.6949 74.2255 76.8395ZM112.364 76.8505C112.741 77.0014 113.191 76.9826 113.365 76.8093C113.538 76.636 113.23 76.5128 112.68 76.5352C112.072 76.5603 111.948 76.684 112.364 76.8505ZM54.259 77.4153C53.5183 77.9597 48.648 83.802 48.9351 83.802C49.0656 83.802 50.5131 82.2751 52.1512 80.409C54.9929 77.1726 55.4246 76.5592 54.259 77.4153ZM69.5604 77.3725C69.9367 77.5234 70.3872 77.5046 70.5605 77.3313C70.7338 77.158 70.4259 77.0348 69.8757 77.0572C69.2675 77.0823 69.1438 77.206 69.5604 77.3725ZM86.884 77.538C86.4137 77.8418 86.3489 78.0469 86.7227 78.0521C87.0646 78.0563 87.4895 77.8251 87.667 77.538C88.0674 76.8896 87.8868 76.8896 86.884 77.538ZM114.452 77.3725C114.829 77.5234 115.279 77.5046 115.453 77.3313C115.626 77.158 115.318 77.0348 114.768 77.0572C114.16 77.0823 114.036 77.206 114.452 77.3725ZM144.098 78.1393C144.642 78.9009 145.191 79.4229 145.319 79.2992C145.447 79.176 145.002 78.5527 144.33 77.9149L143.11 76.755L144.098 78.1393ZM57.3832 78.0469C57.651 78.4802 57.5617 78.6389 57.131 78.4953C56.7651 78.3732 55.3818 79.4584 54.057 80.9075C49.4326 85.9657 49.0975 86.6432 53.1419 82.758L57.2166 78.843L62.2733 84.1935C65.054 87.136 67.5068 89.544 67.7235 89.544C67.9401 89.544 67.44 88.7803 66.6126 87.8475C60.9218 81.43 59.7943 80.268 59.5228 80.5389C59.3553 80.7065 59.218 80.4387 59.218 79.9433C59.218 79.448 58.9831 79.1875 58.696 79.365C58.4089 79.5424 58.174 79.3352 58.174 78.9046C58.174 78.4739 57.9026 77.954 57.5711 77.7494C57.1765 77.5051 57.1112 77.6074 57.3832 78.0469ZM74.7804 77.8945C75.1567 78.0454 75.6072 78.0266 75.7805 77.8533C75.9538 77.68 75.6459 77.5568 75.0957 77.5792C74.4875 77.6043 74.3638 77.728 74.7804 77.8945ZM140.128 78.321C139.679 78.8618 139.659 79.104 140.064 79.104C140.386 79.104 140.65 78.8341 140.65 78.5047C140.65 78.1748 141.296 78.5997 142.085 79.4485C146.318 84.0003 149.001 86.9789 151.297 89.6745C152.702 91.325 154.08 92.676 154.358 92.676C154.636 92.676 153.486 91.1841 151.803 89.3602C150.119 87.5364 147.097 84.1465 145.087 81.8267C143.077 79.507 141.286 77.5933 141.105 77.5735C140.925 77.5541 140.486 77.8903 140.128 78.321ZM84.8372 78.8863C84.8623 79.4944 84.986 79.6181 85.1525 79.2021C85.3034 78.8252 85.2846 78.3747 85.1113 78.2014C84.938 78.0281 84.8148 78.3361 84.8372 78.8863ZM67.048 79.602C67.4786 79.8938 68.2815 80.1354 68.8317 80.1401C70.1669 80.1506 69.7504 79.852 67.831 79.4224C66.6873 79.1666 66.4764 79.2152 67.048 79.602ZM133.342 79.3091C133.342 79.4219 133.706 79.6542 134.152 79.8254C134.617 80.0034 134.826 79.9157 134.643 79.6202C134.337 79.1238 133.342 78.8863 133.342 79.3091ZM106.198 80.1788C106.198 80.4826 106.433 80.5864 106.72 80.409C107.007 80.2315 107.242 79.983 107.242 79.8562C107.242 79.7293 107.007 79.626 106.72 79.626C106.433 79.626 106.198 79.875 106.198 80.1788ZM110.64 80.1563C110.821 80.4481 111.187 80.552 111.454 80.3865C112.178 79.9392 112.043 79.626 111.126 79.626C110.679 79.626 110.46 79.8645 110.64 80.1563ZM135.43 80.1788C135.43 80.4826 135.665 80.5864 135.952 80.409C136.239 80.2315 136.474 79.983 136.474 79.8562C136.474 79.7293 136.239 79.626 135.952 79.626C135.665 79.626 135.43 79.875 135.43 80.1788ZM138.823 80.148C139 80.4351 139.249 80.67 139.376 80.67C139.503 80.67 139.606 80.4351 139.606 80.148C139.606 79.8609 139.357 79.626 139.053 79.626C138.749 79.626 138.646 79.8609 138.823 80.148ZM73.1815 80.4935C73.5406 80.6386 74.1279 80.6386 74.4865 80.4935C74.8456 80.3489 74.5517 80.2304 73.834 80.2304C73.1162 80.2304 72.8229 80.3489 73.1815 80.4935ZM115.594 80.8511C116.312 81.2296 117.01 81.4483 117.145 81.3371C117.512 81.0359 115.972 80.1642 115.072 80.1636C114.64 80.1636 114.875 80.4721 115.594 80.8511ZM67.9615 81.0155C68.3206 81.1607 68.9079 81.1607 69.2665 81.0155C69.6256 80.8709 69.3317 80.7524 68.614 80.7524C67.8962 80.7524 67.6029 80.8709 67.9615 81.0155ZM75.8244 81.0265C76.2007 81.1774 76.6512 81.1586 76.8245 80.9853C76.9978 80.812 76.6899 80.6888 76.1397 80.7112C75.5315 80.7363 75.4078 80.86 75.8244 81.0265ZM96.5368 83.3948L93.931 86.151L96.5958 83.6349L99.2611 81.1189L102.757 84.9399C104.681 87.0415 106.113 88.4086 105.942 87.978C105.77 87.5473 104.17 85.7198 102.386 83.9168L99.1426 80.6386L96.5368 83.3948ZM107.242 81.2228C107.242 81.5266 107.477 81.6304 107.764 81.453C108.051 81.2755 108.286 81.027 108.286 80.9002C108.286 80.7733 108.051 80.67 107.764 80.67C107.477 80.67 107.242 80.919 107.242 81.2228ZM137.518 81.192C137.518 81.4791 137.753 81.714 138.04 81.714C138.327 81.714 138.562 81.4791 138.562 81.192C138.562 80.9049 138.327 80.67 138.04 80.67C137.753 80.67 137.518 80.9049 137.518 81.192ZM146.92 81.0213C146.927 81.5642 152.081 87.3276 152.112 86.827C152.124 86.6249 151.606 85.9197 150.959 85.2604C150.313 84.6006 149.139 83.28 148.349 82.3258C147.56 81.371 146.917 80.7843 146.92 81.0213ZM71.6218 81.561C72.2711 81.6858 73.2107 81.6811 73.7098 81.5506C74.2088 81.4201 73.6774 81.3178 72.529 81.3235C71.3806 81.3293 70.9724 81.4363 71.6218 81.561ZM112.984 81.714C113.702 81.9436 114.759 82.1321 115.333 82.1321C116.16 82.1321 116.106 82.0449 115.072 81.714C114.354 81.4843 113.297 81.2959 112.723 81.2959C111.896 81.2959 111.95 81.383 112.984 81.714ZM75.2695 82.0595C75.6286 82.2047 76.2159 82.2047 76.5745 82.0595C76.9336 81.9149 76.6397 81.7964 75.922 81.7964C75.2042 81.7964 74.9109 81.9149 75.2695 82.0595ZM108.645 82.0773C108.265 82.6927 117.645 92.7605 118.25 92.3863C118.512 92.2244 118.726 92.4588 118.726 92.9062C118.726 93.3535 118.975 93.72 119.279 93.72C119.583 93.72 119.683 93.9606 119.501 94.255C119.319 94.5489 119.481 94.7253 119.862 94.6465C120.242 94.5677 120.495 94.7963 120.422 95.1555C120.351 95.5141 120.503 95.749 120.762 95.6775C121.02 95.6054 121.265 95.7819 121.305 96.069C121.423 96.9047 125.135 100.506 125.879 100.506C126.251 100.506 126.556 100.755 126.556 101.059C126.556 101.363 126.263 101.447 125.903 101.246C125.545 101.044 126.406 102.077 127.818 103.54C129.23 105.004 130.601 106.068 130.865 105.905C131.129 105.742 130.582 104.822 129.65 103.86C128.719 102.899 127.775 102.225 127.554 102.362C127.332 102.499 127.003 102.372 126.822 102.08C126.642 101.789 126.792 101.55 127.156 101.55C127.52 101.55 126.792 100.505 125.539 99.2281C124.286 97.9513 123.003 96.9532 122.69 97.0096C122.376 97.0665 122.176 96.8233 122.246 96.4693C122.401 95.6895 116.9 89.8149 115.983 89.7815C115.626 89.7684 115.398 89.4573 115.477 89.0898C115.555 88.7229 115.395 88.561 115.121 88.7307C114.846 88.9003 114.475 88.8001 114.294 88.5083C114.114 88.2165 114.244 87.978 114.583 87.978C115.034 87.978 115.02 87.7619 114.53 87.171C114.162 86.7273 113.52 86.4955 113.103 86.6552C112.608 86.8452 112.442 86.6954 112.623 86.2225C112.941 85.3946 109.08 81.3726 108.645 82.0773ZM78.9235 82.5815C79.2826 82.7267 79.8699 82.7267 80.2285 82.5815C80.5876 82.4369 80.2937 82.3185 79.576 82.3185C78.8582 82.3185 78.5649 82.4369 78.9235 82.5815ZM110.668 83.9325L112.201 85.629L110.504 84.0959C108.923 82.6666 108.568 82.236 108.971 82.236C109.061 82.236 109.825 82.9997 110.668 83.9325ZM135.259 83.7075C134.484 84.5171 134.009 85.3393 134.205 85.5345C134.4 85.7302 134.129 85.89 133.603 85.89C133.077 85.89 132.786 86.0293 132.956 86.1995C133.126 86.3697 132.225 87.4711 130.954 88.6472C129.684 89.8232 128.644 91.0933 128.644 91.4696C128.644 91.846 128.468 92.095 128.252 92.0235C128.037 91.952 127.759 92.1279 127.635 92.415C127.511 92.7021 126.864 93.365 126.199 93.8886C125.534 94.4116 124.99 95.1085 124.99 95.4363C124.99 95.7646 126.276 94.7629 127.848 93.2105C129.42 91.6581 130.61 90.292 130.492 90.1745C130.375 90.0571 131.18 89.1034 132.282 88.0557C135.073 85.4024 137.72 82.236 137.148 82.236C136.885 82.236 136.035 82.8984 135.259 83.7075ZM66.9504 83.6365C67.3267 83.7874 67.7772 83.7686 67.9505 83.5953C68.1238 83.422 67.8159 83.2988 67.2657 83.3212C66.6575 83.3463 66.5338 83.47 66.9504 83.6365ZM54.8092 86.3191L53.2708 88.239L55.2007 86.4402C57.1942 84.5813 57.404 84.2974 56.7385 84.3616C56.5234 84.3824 55.6548 85.2631 54.8092 86.3191ZM57.652 84.668C57.652 84.953 58.2982 85.7553 59.0875 86.4516L60.523 87.717L59.218 86.151C58.5002 85.2897 57.854 84.4874 57.7825 84.3673C57.711 84.2478 57.652 84.383 57.652 84.668ZM66.9504 84.6805C67.3267 84.8314 67.7772 84.8126 67.9505 84.6393C68.1238 84.466 67.8159 84.3428 67.2657 84.3652C66.6575 84.3903 66.5338 84.514 66.9504 84.6805ZM74.2255 84.6695C74.5846 84.8147 75.1719 84.8147 75.5305 84.6695C75.8896 84.5249 75.5957 84.4064 74.878 84.4064C74.1602 84.4064 73.8669 84.5249 74.2255 84.6695ZM78.1405 85.2056C78.6432 85.3372 79.4648 85.3372 79.9675 85.2056C80.4702 85.0746 80.0588 84.9671 79.054 84.9671C78.0491 84.9671 77.6378 85.0746 78.1405 85.2056ZM115.594 85.2636C115.594 85.8038 116.724 86.934 117.264 86.934C117.494 86.934 117.682 86.6991 117.682 86.412C117.682 86.1249 117.389 85.949 117.029 86.0205C116.671 86.092 116.436 85.8576 116.507 85.4985C116.579 85.1399 116.403 84.846 116.116 84.846C115.829 84.846 115.594 85.0339 115.594 85.2636ZM138.038 88.2405C136.19 90.1056 134.848 91.632 135.057 91.632C135.266 91.632 136.792 90.2001 138.447 88.4499L141.457 85.2672L143.924 87.9054C145.282 89.356 146.392 90.3682 146.392 90.1547C146.392 89.9407 145.269 88.6592 143.896 87.3072L141.4 84.8486L138.038 88.2405ZM72.6658 85.737C73.3151 85.8618 74.2547 85.8571 74.7538 85.7266C75.2528 85.5961 74.7214 85.4938 73.573 85.4995C72.4246 85.5053 72.0164 85.6123 72.6658 85.737ZM84.7287 85.7553C84.6222 86.0335 82.4209 88.548 79.837 91.3433C77.2531 94.1386 75.1098 96.639 75.0737 96.8995C75.0377 97.1605 74.9793 97.623 74.9432 97.9268C74.9072 98.2306 74.6374 98.3308 74.3429 98.1491C74.0491 97.967 73.8726 98.0473 73.9514 98.3271C74.0303 98.6069 73.93 98.8006 73.7286 98.7573C73.0035 98.6022 69.136 102.828 69.136 103.775C69.136 104.308 68.9011 104.598 68.614 104.421C68.3269 104.243 68.092 104.478 68.092 104.943C68.092 105.408 67.8931 105.664 67.6499 105.515C67.0657 105.153 64.3158 108.04 64.7914 108.516C65.4094 109.134 70.133 104.123 69.7854 103.218C69.5567 102.621 69.7097 102.502 70.3773 102.758C70.9343 102.972 71.1509 102.898 70.9453 102.565C70.5511 101.927 71.6802 100.404 72.2748 100.771C72.5003 100.911 73.4435 100.144 74.3711 99.0689C75.8677 97.3333 77.2484 95.832 84.0934 88.4984C85.2465 87.2628 85.6578 86.4396 85.3613 85.9599C85.1196 85.5695 84.8351 85.4776 84.7287 85.7553ZM80.62 91.632C77.9729 94.503 75.6897 96.852 75.5462 96.852C75.4026 96.852 77.4509 94.503 80.098 91.632C82.7451 88.761 85.0283 86.412 85.1718 86.412C85.3154 86.412 83.2671 88.761 80.62 91.632ZM91.8185 88.6305L89.755 90.849L91.9735 88.7855C93.1939 87.6507 94.192 86.6521 94.192 86.567C94.192 86.1719 93.7373 86.5675 91.8185 88.6305ZM114.028 87.456C114.028 87.7431 113.925 87.978 113.798 87.978C113.671 87.978 113.422 87.7431 113.245 87.456C113.068 87.1689 113.171 86.934 113.475 86.934C113.779 86.934 114.028 87.1689 114.028 87.456ZM120.941 87.2806C120.581 87.4262 120.418 87.7598 120.581 88.0223C121.039 88.7641 121.684 88.5856 121.684 87.717C121.684 87.2863 121.664 86.9528 121.64 86.9752C121.617 86.9977 121.302 87.1355 120.941 87.2806ZM46.2129 89.7434L44.9528 91.371L46.4462 89.9511C47.2673 89.1702 47.8347 88.4379 47.7063 88.3235C47.5779 88.2092 46.9061 88.8481 46.2129 89.7434ZM70.2604 88.4394C69.3443 89.0199 72.2868 90.0905 74.5643 90.0054C76.2274 89.9433 76.1 89.8942 72.529 89.2188L70.441 88.8236L72.529 88.4749L74.617 88.1262L72.79 88.0599C71.7851 88.0239 70.6467 88.1946 70.2604 88.4394ZM42.4858 90.4575L40.687 92.415L42.6445 90.6162C44.4663 88.9416 44.8421 88.5 44.4433 88.5C44.3561 88.5 43.4755 89.3811 42.4858 90.4575ZM108.547 91.11C109.668 92.2584 110.703 93.198 110.847 93.198C110.99 93.198 110.19 92.2584 109.069 91.11C107.948 89.9616 106.913 89.022 106.769 89.022C106.626 89.022 107.426 89.9616 108.547 91.11ZM63.394 91.371C64.0684 92.0887 64.7376 92.676 64.8812 92.676C65.0247 92.676 64.5904 92.0887 63.916 91.371C63.2416 90.6532 62.5724 90.066 62.4288 90.066C62.2853 90.066 62.7196 90.6532 63.394 91.371ZM117.421 91.11C117.94 91.6842 118.248 92.154 118.105 92.154C117.961 92.154 117.418 91.6842 116.899 91.11C116.38 90.5358 116.072 90.066 116.215 90.066C116.359 90.066 116.902 90.5358 117.421 91.11ZM49.3 92.415C48.6256 93.1327 48.291 93.7127 48.5567 93.7038C49.003 93.6887 51.1541 91.11 50.7204 91.11C50.6133 91.11 49.9744 91.6972 49.3 92.415ZM70.441 93.198C71.5622 94.3464 72.7247 95.286 73.0238 95.286C73.3224 95.286 72.5697 94.3464 71.3508 93.198C70.1314 92.0496 68.9695 91.11 68.768 91.11C68.567 91.11 69.3197 92.0496 70.441 93.198ZM43.297 92.676C42.7776 93.2502 42.6153 93.72 42.9368 93.72C43.2584 93.72 43.7725 93.2502 44.08 92.676C44.3875 92.1018 44.5493 91.632 44.4402 91.632C44.3311 91.632 43.8164 92.1018 43.297 92.676ZM156.31 91.7953C156.31 91.8851 157.059 92.6488 157.973 93.4919L159.636 95.025L158.365 93.3572C157.285 91.941 156.31 91.1998 156.31 91.7953ZM149.002 93.459C149.676 94.1767 150.346 94.764 150.489 94.764C150.633 94.764 150.198 94.1767 149.524 93.459C148.85 92.7412 148.18 92.154 148.037 92.154C147.893 92.154 148.328 92.7412 149.002 93.459ZM38.338 95.025C37.0701 96.3169 36.1503 97.374 36.2938 97.374C36.4374 97.374 37.5921 96.3169 38.86 95.025C40.1279 93.733 41.0477 92.676 40.9041 92.676C40.7606 92.676 39.6059 93.733 38.338 95.025ZM111.94 95.025C112.614 95.7427 113.284 96.33 113.427 96.33C113.571 96.33 113.136 95.7427 112.462 95.025C111.788 94.3072 111.118 93.72 110.975 93.72C110.831 93.72 111.266 94.3072 111.94 95.025ZM55.1725 94.6016C55.7853 94.7619 56.086 95.3538 56.086 96.3989C56.086 97.3051 56.3047 97.8224 56.608 97.635C56.8951 97.4575 57.13 96.7585 57.13 96.0815C57.13 95.405 57.4239 94.7326 57.7825 94.5875C58.1416 94.4429 57.4954 94.3333 56.347 94.3438C55.1986 94.3542 54.6698 94.4706 55.1725 94.6016ZM66.004 94.4053C66.004 94.4951 66.7677 95.2588 67.7005 96.1019L69.397 97.635L67.8639 95.9385C66.4346 94.3573 66.004 94.0018 66.004 94.4053ZM85.5294 95.4165L84.535 96.591L85.7095 95.5966C86.3557 95.0495 86.884 94.5212 86.884 94.4221C86.884 94.0045 86.4638 94.313 85.5294 95.4165ZM130.205 96.5962L127.895 98.9499L129.396 100.381L130.898 101.811L129.753 100.283L128.609 98.7541L130.823 96.4981C132.041 95.2573 132.92 94.242 132.776 94.242C132.633 94.242 131.476 95.3011 130.205 96.5962ZM138.858 95.2473C138.358 95.8001 138.059 96.6808 138.194 97.2048C138.397 97.9868 138.452 97.9529 138.501 97.0122C138.535 96.3822 139.084 95.5016 139.722 95.0547C140.36 94.6079 140.632 94.242 140.325 94.242C140.018 94.242 139.359 94.6945 138.858 95.2473ZM143.303 94.3897C143.423 94.4711 143.991 94.8819 144.565 95.3032C145.531 96.0115 145.555 96.0006 144.893 95.1555C144.499 94.6533 143.931 94.242 143.631 94.242C143.331 94.242 143.184 94.3083 143.303 94.3897ZM155.788 94.3578C155.788 94.492 156.398 95.2839 157.143 96.118C158.047 97.1302 158.317 97.2732 157.954 96.5482C157.436 95.512 155.788 93.8452 155.788 94.3578ZM53.1936 95.3209C53.0041 95.6268 52.9613 95.9896 53.0981 96.1264C53.2348 96.2631 53.4859 96.0126 53.6561 95.5694C54.009 94.6497 53.7083 94.4878 53.1936 95.3209ZM58.9904 95.4389C59.1867 95.9536 59.4785 96.2433 59.6393 96.0825C59.8 95.9223 59.6398 95.501 59.2827 95.1466C58.767 94.635 58.7075 94.6951 58.9904 95.4389ZM44.5623 97.7655L43.297 99.201L44.7325 97.9356C46.074 96.7528 46.4076 96.33 45.9978 96.33C45.9044 96.33 45.2587 96.9762 44.5623 97.7655ZM82.1578 98.8095L80.359 100.767L82.3165 98.9682C84.1383 97.2936 84.5141 96.852 84.1153 96.852C84.0281 96.852 83.1475 97.7331 82.1578 98.8095ZM153.444 98.3898C156.036 101.377 156.351 101.684 156.585 101.449C156.709 101.325 155.701 100.181 154.347 98.9076C152.554 97.2215 152.308 97.0806 153.444 98.3898ZM124.468 98.679C125.142 99.3967 125.577 99.984 125.433 99.984C125.29 99.984 124.62 99.3967 123.946 98.679C123.272 97.9612 122.837 97.374 122.981 97.374C123.124 97.374 123.794 97.9612 124.468 98.679ZM94.1252 98.8095C93.4628 99.6546 93.4873 99.6655 94.453 98.9572C95.0272 98.5359 95.5951 98.1251 95.7147 98.0437C95.8342 97.9623 95.6865 97.896 95.3868 97.896C95.0872 97.896 94.5193 98.3073 94.1252 98.8095ZM103.109 98.0437C103.229 98.1251 103.797 98.5359 104.371 98.9572C105.337 99.6655 105.361 99.6546 104.699 98.8095C104.305 98.3073 103.737 97.896 103.437 97.896C103.138 97.896 102.99 97.9623 103.109 98.0437ZM160.431 99.8462C162.218 102.174 163.096 102.953 163.096 102.209C163.096 101.963 162.115 100.833 160.915 99.6984L158.734 97.635L160.431 99.8462ZM163.141 99.2626C163.834 100.158 164.506 100.797 164.634 100.682C164.763 100.568 164.195 99.8357 163.374 99.0548L161.881 97.635L163.141 99.2626ZM52.954 100.506V102.555L56.4775 102.473C58.4157 102.428 59.3548 102.304 58.5655 102.197C57.3785 102.036 57.13 101.744 57.13 100.506C57.13 99.2683 57.3785 98.9755 58.5655 98.8152C59.3548 98.7082 58.4157 98.584 56.4775 98.5391L52.954 98.4566V100.506ZM138.139 100.375C138.287 102.163 138.449 102.347 139.997 102.496C140.931 102.587 141.694 102.451 141.694 102.196C141.694 101.94 140.989 101.834 140.128 101.961C138.68 102.173 138.562 102.07 138.562 100.598C138.562 99.1931 138.761 98.9812 140.258 98.7954C141.903 98.5918 141.893 98.5824 139.966 98.5015L137.977 98.418L138.139 100.375ZM142.868 98.7776C143.371 98.9092 144.193 98.9092 144.695 98.7776C145.198 98.6466 144.787 98.5391 143.782 98.5391C142.777 98.5391 142.366 98.6466 142.868 98.7776ZM32.3642 101.517L30.3049 103.899L32.5997 101.698C33.8613 100.488 34.7879 99.416 34.6584 99.3163C34.529 99.2166 33.4964 100.207 32.3642 101.517ZM56.086 100.506C56.086 101.828 55.8829 102.072 54.781 102.072C53.6791 102.072 53.476 101.828 53.476 100.506C53.476 99.1837 53.6791 98.94 54.781 98.94C55.8829 98.94 56.086 99.1837 56.086 100.506ZM116.954 100.063C117.498 100.825 118.047 101.347 118.175 101.223C118.303 101.1 117.858 100.477 117.186 99.8388L115.966 98.679L116.954 100.063ZM34.9252 102.135C33.5006 103.606 32.5788 104.721 32.8768 104.615C33.4448 104.412 38.1088 99.462 37.7325 99.462C37.6135 99.462 36.3502 100.665 34.9252 102.135ZM40.177 102.582C38.7697 104.011 37.721 105.255 37.8473 105.345C37.9736 105.436 39.228 104.268 40.6353 102.747C43.8696 99.2537 43.5637 99.143 40.177 102.582ZM105.286 101.811C105.291 102.959 105.398 103.368 105.523 102.718C105.648 102.069 105.643 101.129 105.513 100.63C105.382 100.131 105.28 100.663 105.286 101.811ZM77.2108 104.29L74.095 107.553L77.3575 104.437C80.3882 101.543 80.8591 101.028 80.4733 101.028C80.3924 101.028 78.924 102.496 77.2108 104.29ZM62.35 107.184L57.391 112.119L62.4805 107.553C65.28 105.042 67.57 102.781 67.57 102.53C67.57 101.941 68.0481 101.515 62.35 107.184ZM142.868 102.432C143.371 102.563 144.193 102.563 144.695 102.432C145.198 102.301 144.787 102.193 143.782 102.193C142.777 102.193 142.366 102.301 142.868 102.432ZM129.46 104.29L130.993 105.987L129.296 104.454C127.715 103.025 127.36 102.594 127.763 102.594C127.853 102.594 128.617 103.357 129.46 104.29ZM163.618 102.9C163.618 103.379 165.426 105.585 169.533 110.113C171.591 112.383 173.687 114.711 174.192 115.286C174.696 115.862 175.204 116.237 175.32 116.119C175.436 116.002 174.469 114.73 173.171 113.295C171.872 111.859 169.192 108.863 167.214 106.636C165.236 104.409 163.618 102.728 163.618 102.9ZM167.272 103.899C167.946 104.617 168.616 105.204 168.759 105.204C168.903 105.204 168.468 104.617 167.794 103.899C167.12 103.181 166.45 102.594 166.307 102.594C166.163 102.594 166.598 103.181 167.272 103.899ZM133.342 104.421C134.016 105.139 134.686 105.726 134.829 105.726C134.973 105.726 134.538 105.139 133.864 104.421C133.19 103.703 132.52 103.116 132.377 103.116C132.233 103.116 132.668 103.703 133.342 104.421ZM28.6481 105.856L27.115 107.553L28.8115 106.02C29.7443 105.177 30.508 104.413 30.508 104.323C30.508 103.92 30.0773 104.275 28.6481 105.856ZM122.38 105.987C123.354 106.992 124.268 107.814 124.412 107.814C124.555 107.814 123.876 106.992 122.902 105.987C121.928 104.982 121.014 104.16 120.87 104.16C120.727 104.16 121.406 104.982 122.38 105.987ZM94.8445 105.056C95.6338 105.175 96.9262 105.175 97.7155 105.056C98.5048 104.936 97.859 104.839 96.28 104.839C94.7009 104.839 94.0552 104.936 94.8445 105.056ZM102.413 105.067L105.154 105.259V107.814V110.369L102.413 110.561L99.673 110.753L102.674 110.849L105.676 110.946V107.814V104.682L102.674 104.779L99.673 104.875L102.413 105.067ZM30.9903 106.639L29.725 108.075L31.1605 106.81C32.502 105.627 32.8356 105.204 32.4258 105.204C32.3324 105.204 31.6867 105.85 30.9903 106.639ZM67.57 105.896C67.57 105.99 66.9238 106.635 66.1345 107.332L64.699 108.597L65.9643 107.161C67.1472 105.82 67.57 105.486 67.57 105.896ZM160.508 106.156C160.521 106.35 162.577 108.634 165.076 111.231C167.576 113.828 169.034 115.242 168.316 114.371C167.598 113.502 166.894 112.668 166.75 112.52C166.606 112.372 165.139 110.799 163.487 109.027C161.836 107.254 160.496 105.962 160.508 106.156ZM131.254 106.801C131.254 107.105 131.489 107.208 131.776 107.031C132.063 106.853 132.298 106.605 132.298 106.478C132.298 106.351 132.063 106.248 131.776 106.248C131.489 106.248 131.254 106.497 131.254 106.801ZM134.908 106.411C134.908 106.501 135.671 107.265 136.604 108.108L138.301 109.641L136.768 107.944C135.339 106.363 134.908 106.008 134.908 106.411ZM170.418 107.117C170.435 107.648 174.078 111.622 174.323 111.377C174.419 111.281 173.576 110.185 172.451 108.941C171.325 107.698 170.41 106.877 170.418 107.117ZM34.6443 108.727L33.379 110.163L34.8145 108.898C35.6043 108.201 36.25 107.556 36.25 107.462C36.25 107.052 35.8272 107.386 34.6443 108.727ZM132.037 107.814C131.86 108.101 131.949 108.336 132.236 108.336C132.523 108.336 132.904 108.101 133.081 107.814C133.258 107.527 133.169 107.292 132.882 107.292C132.594 107.292 132.214 107.527 132.037 107.814ZM133.081 108.858C132.904 109.145 132.993 109.38 133.28 109.38C133.567 109.38 133.948 109.145 134.125 108.858C134.302 108.571 134.213 108.336 133.926 108.336C133.638 108.336 133.258 108.571 133.081 108.858ZM61.8384 111.197C60.5762 112.483 59.4858 113.927 59.4153 114.407C59.3422 114.905 60.4922 114.089 62.0994 112.502C63.6461 110.974 64.7914 109.529 64.6442 109.291C64.2689 108.684 64.3733 108.613 61.8384 111.197ZM62.35 111.729C61.0821 113.021 59.9274 114.078 59.7838 114.078C59.6403 114.078 60.5601 113.021 61.828 111.729C63.0959 110.437 64.2506 109.38 64.3941 109.38C64.5377 109.38 63.6179 110.437 62.35 111.729ZM134.229 109.734C133.855 110.338 143.05 120.18 143.541 119.701C144.041 119.217 137.122 111.452 136.331 111.61C136.005 111.676 135.728 111.447 135.714 111.103C135.682 110.227 134.562 109.195 134.229 109.734ZM27.0654 111.076L26.071 112.251L27.2455 111.257C28.349 110.322 28.6575 109.902 28.2399 109.902C28.1407 109.902 27.6125 110.43 27.0654 111.076ZM139.345 110.946C139.864 111.52 140.407 111.99 140.551 111.99C140.694 111.99 140.386 111.52 139.867 110.946C139.348 110.372 138.805 109.902 138.661 109.902C138.518 109.902 138.826 110.372 139.345 110.946ZM94.8445 110.798C95.6338 110.917 96.9262 110.917 97.7155 110.798C98.5048 110.678 97.859 110.581 96.28 110.581C94.7009 110.581 94.0552 110.678 94.8445 110.798ZM68.3285 113.686L66.265 115.905L68.4835 113.842C70.5464 111.923 70.9421 111.468 70.547 111.468C70.4619 111.468 69.4633 112.467 68.3285 113.686ZM129.666 113.686C130.946 115.05 132.062 116.166 132.146 116.166C132.538 116.166 132.123 115.697 129.818 113.534L127.339 111.207L129.666 113.686ZM141.915 117.727C143.483 119.506 143.486 119.518 142.033 118.249C141.215 117.534 139.594 115.774 138.433 114.339L136.32 111.729L138.315 113.817C139.412 114.965 141.032 116.725 141.915 117.727ZM174.58 112.153C174.58 112.243 175.343 113.007 176.276 113.85L177.973 115.383L176.44 113.686C175.011 112.105 174.58 111.75 174.58 112.153ZM23.983 114.078C23.1577 114.939 22.725 115.644 23.0215 115.644C23.5576 115.644 24.7926 114.408 25.5005 113.164C26.1091 112.094 25.5756 112.415 23.983 114.078ZM29.4358 114.469L27.637 116.427L29.5945 114.628C30.6714 113.638 31.552 112.758 31.552 112.671C31.552 112.272 31.1104 112.648 29.4358 114.469ZM144.088 116.296C146.073 118.378 147.932 120.176 148.219 120.293C148.506 120.41 146.995 118.707 144.861 116.508C142.728 114.31 140.869 112.512 140.73 112.512C140.592 112.512 142.103 114.215 144.088 116.296ZM54.2684 115.635C53.1524 116.778 52.3412 117.791 52.4659 117.886C52.5907 117.981 53.6044 117.046 54.7184 115.807C57.2615 112.98 56.9697 112.868 54.2684 115.635ZM19.7574 115.252L18.763 116.427L19.9375 115.433C21.041 114.498 21.3495 114.078 20.9319 114.078C20.8327 114.078 20.3045 114.606 19.7574 115.252ZM57.699 115.533C57.2944 116.025 56.1471 117.292 55.1485 118.348C53.9547 119.613 53.6274 120.228 54.1911 120.145C55.4565 119.959 58.4606 116.862 58.5519 115.65C58.6464 114.397 58.636 114.395 57.699 115.533ZM58.174 116.325C58.174 116.412 57.2934 117.292 56.2165 118.282L54.259 120.081L56.0578 118.123C57.7324 116.302 58.174 115.926 58.174 116.325ZM64.6661 117.862L63.133 119.559L64.8295 118.026C66.4106 116.597 66.7661 116.166 66.3626 116.166C66.2728 116.166 65.5091 116.929 64.6661 117.862ZM10.0258 117.057C10.6751 117.182 11.6147 117.177 12.1138 117.047C12.6128 116.916 12.0814 116.814 10.933 116.82C9.7846 116.825 9.3764 116.932 10.0258 117.057ZM186.455 117.057C187.102 117.181 188.158 117.181 188.804 117.057C189.451 116.932 188.922 116.83 187.63 116.83C186.338 116.83 185.809 116.932 186.455 117.057ZM1.10217 117.558C0.0560862 118.604 1.86534 118.766 13.4125 118.66L26.071 118.544L13.543 118.268C6.6526 118.117 1.60225 117.849 2.32 117.672C3.4329 117.399 3.46527 117.342 2.53767 117.281C1.93946 117.242 1.29323 117.367 1.10217 117.558ZM195.6 117.572C196.108 117.704 196.813 117.695 197.166 117.552C197.52 117.409 197.104 117.301 196.243 117.312C195.382 117.322 195.092 117.439 195.6 117.572ZM50.9182 119.452C50.2579 120.552 50.2693 120.563 51.1682 119.702C51.6855 119.206 51.9966 118.688 51.8594 118.551C51.7221 118.414 51.2987 118.819 50.9182 119.452ZM177.812 118.644C181.455 118.733 187.563 118.734 191.384 118.644C195.205 118.555 192.224 118.482 184.759 118.482C177.294 118.481 174.168 118.554 177.812 118.644ZM136.213 120.864C137.334 122.012 138.369 122.952 138.513 122.952C138.656 122.952 137.856 122.012 136.735 120.864C135.614 119.716 134.579 118.776 134.435 118.776C134.292 118.776 135.092 119.716 136.213 120.864ZM150.47 120.699C150.847 120.849 151.297 120.831 151.471 120.657C151.644 120.484 151.336 120.361 150.786 120.383C150.178 120.408 150.054 120.532 150.47 120.699ZM41.8182 121.734C40.8968 122.655 41.7806 122.945 45.2545 122.86L49.039 122.768L45.385 122.457C42.9713 122.252 42.1742 122.042 43.036 121.837C44.1432 121.575 44.176 121.518 43.2537 121.457C42.6555 121.418 42.0092 121.543 41.8182 121.734ZM155.657 121.732C156.017 121.877 156.604 121.877 156.962 121.732C157.322 121.587 157.028 121.468 156.31 121.468C155.592 121.468 155.299 121.587 155.657 121.732ZM60.001 122.43C59.8235 122.717 59.9274 122.952 60.2312 122.952C60.535 122.952 60.784 122.717 60.784 122.43C60.784 122.143 60.6806 121.908 60.5538 121.908C60.4269 121.908 60.1785 122.143 60.001 122.43ZM152.525 122.807C153.459 122.923 154.985 122.923 155.918 122.807C156.852 122.692 156.088 122.597 154.222 122.597C152.356 122.597 151.592 122.692 152.525 122.807ZM14.587 130.782C14.1704 131.455 14.7305 132.36 15.5313 132.307C15.9797 132.277 15.9708 132.192 15.5005 132.002C13.8588 131.34 15.1836 130.811 18.8935 130.648L22.939 130.47L18.9243 130.365C16.6907 130.306 14.7666 130.492 14.587 130.782ZM46.0375 130.635C48.1192 130.741 49.822 131.052 49.822 131.327C49.822 131.602 49.4984 131.826 49.1027 131.826C48.7075 131.826 48.0968 132.172 47.7455 132.595C47.2115 133.238 47.3759 133.23 48.7519 132.544C51.3635 131.241 50.4526 130.526 46.1262 130.481L42.253 130.442L46.0375 130.635ZM87.655 130.65C90.1016 130.774 91.6441 131.126 92.353 131.722C93.4027 132.604 93.4033 132.602 92.4146 131.434C91.5371 130.398 90.9843 130.272 87.7166 130.362L84.013 130.465L87.655 130.65ZM105.494 130.651C105.36 130.867 107.578 130.969 110.422 130.878C113.456 130.781 115.594 130.918 115.594 131.208C115.594 131.481 115.148 131.821 114.602 131.964C114.056 132.106 113.336 132.78 113.001 133.46L112.392 134.697L113.341 133.598C113.862 132.994 114.7 132.355 115.202 132.179C115.705 132.003 116.116 131.499 116.116 131.059C116.116 130.395 115.239 130.26 110.927 130.26C108.072 130.26 105.628 130.436 105.494 130.651ZM124.887 130.649C127.845 130.743 132.543 130.742 135.327 130.649C138.111 130.555 135.691 130.479 129.949 130.479C124.207 130.48 121.929 130.556 124.887 130.649ZM145.609 130.782C145.192 131.455 145.753 132.36 146.553 132.307C147.002 132.277 146.993 132.192 146.522 132.002C144.663 131.252 146.423 130.782 151.09 130.782C155.735 130.782 157.376 131.21 155.775 132.005C155.481 132.15 155.54 132.209 155.905 132.135C156.271 132.061 156.647 131.609 156.74 131.13C156.889 130.362 156.262 130.26 151.42 130.26C148.324 130.26 145.791 130.488 145.609 130.782ZM165.314 130.64C170.951 130.818 171.929 131.139 169.751 132.094C168.589 132.604 168.575 132.729 168.437 144.579C168.359 151.162 168.477 156.73 168.698 156.951C168.918 157.172 169.032 151.842 168.95 145.106L168.801 132.858L170.167 132.339C170.918 132.053 171.436 131.527 171.317 131.17C171.164 130.708 169.462 130.513 165.403 130.492L159.703 130.463L165.314 130.64ZM118.926 132.057C118.768 132.47 118.73 133.234 118.842 133.753C118.97 134.343 119.148 134.06 119.318 133C119.602 131.223 119.418 130.777 118.926 132.057ZM159.964 131.671C159.964 131.907 160.492 132.332 161.138 132.616C162.301 133.126 162.315 133.252 162.453 145.085C162.58 155.882 162.505 157.145 161.67 158.135L160.747 159.231L161.921 158.237C163.076 157.259 163.096 157.038 163.096 145.398C163.096 134.765 163.003 133.473 162.182 132.769C160.842 131.618 159.964 131.183 159.964 131.671ZM84.3173 131.974C84.4374 132.055 85.0048 132.466 85.579 132.887C86.5447 133.596 86.5692 133.585 85.9068 132.739C85.5127 132.237 84.9448 131.826 84.6451 131.826C84.3455 131.826 84.1978 131.892 84.3173 131.974ZM106.1 132.183C106.477 132.333 106.927 132.315 107.101 132.141C107.274 131.968 106.966 131.845 106.416 131.867C105.808 131.892 105.684 132.016 106.1 132.183ZM24.0164 133.545C24.2127 134.06 24.5045 134.349 24.6653 134.189C24.826 134.028 24.6658 133.607 24.3087 133.253C23.793 132.741 23.7335 132.801 24.0164 133.545ZM94.192 134.175C94.8664 134.893 95.5356 135.48 95.6792 135.48C95.8227 135.48 95.3884 134.893 94.714 134.175C94.0396 133.457 93.3704 132.87 93.2268 132.87C93.0833 132.87 93.5176 133.457 94.192 134.175ZM124.99 133.194C128.02 133.582 132.822 133.623 132.821 133.261C132.821 133.046 130.765 132.905 128.252 132.948C125.741 132.991 124.272 133.102 124.99 133.194ZM153.802 134.697C153.812 135.558 153.929 135.847 154.062 135.34C154.194 134.832 154.185 134.127 154.042 133.774C153.899 133.42 153.791 133.836 153.802 134.697ZM70.0396 135C70.2244 135.705 70.4608 135.942 70.5913 135.551C70.7166 135.175 70.5715 134.619 70.2677 134.315C69.8804 133.928 69.8125 134.132 70.0396 135ZM17.5895 136.263C17.5953 137.411 17.7023 137.82 17.8271 137.17C17.9518 136.521 17.9471 135.581 17.8166 135.082C17.6861 134.583 17.5838 135.115 17.5895 136.263ZM120.37 136.008C119.736 136.866 119.4 137.561 119.624 137.552C120.144 137.53 122.033 134.959 121.742 134.668C121.622 134.547 121.004 135.151 120.37 136.008ZM131.494 134.993C131.304 135.299 131.261 135.662 131.398 135.798C131.535 135.935 131.786 135.685 131.956 135.241C132.309 134.322 132.008 134.16 131.494 134.993ZM148.18 145.398C148.18 151.571 148.255 154.096 148.347 151.009C148.44 147.923 148.44 142.873 148.347 139.786C148.255 136.7 148.18 139.225 148.18 145.398ZM96.802 137.307C97.4764 138.025 98.1456 138.612 98.2892 138.612C98.4327 138.612 97.9984 138.025 97.324 137.307C96.6496 136.589 95.9804 136.002 95.8368 136.002C95.6933 136.002 96.1276 136.589 96.802 137.307ZM136.741 137.371C136.247 138.124 136.102 138.581 136.417 138.386C137.019 138.014 138.235 136.002 137.857 136.002C137.737 136.002 137.235 136.618 136.741 137.371ZM70.9964 137.199C71.1927 137.714 71.4845 138.003 71.6452 137.843C71.806 137.682 71.6458 137.261 71.2887 136.907C70.773 136.395 70.7135 136.455 70.9964 137.199ZM38.1104 138.981C37.8275 139.725 37.887 139.785 38.4027 139.273C38.7598 138.919 38.92 138.498 38.7593 138.337C38.5985 138.177 38.3067 138.466 38.1104 138.981ZM65.0446 139.417C64.711 140.15 64.4474 141.031 64.4584 141.377C64.4698 141.723 64.8258 141.206 65.2492 140.23C66.1413 138.174 65.9528 137.425 65.0446 139.417ZM87.0954 146.181C87.0959 150.775 87.1758 152.584 87.2729 150.202C87.3695 147.82 87.3689 144.061 87.2713 141.85C87.1737 139.638 87.0949 141.587 87.0954 146.181ZM40.9892 139.438C41.0143 140.046 41.138 140.17 41.3045 139.754C41.4554 139.377 41.4366 138.927 41.2633 138.753C41.09 138.58 40.9668 138.888 40.9892 139.438ZM62.1224 139.503C61.8395 140.247 61.899 140.307 62.4147 139.795C62.7718 139.441 62.932 139.02 62.7713 138.859C62.6105 138.699 62.3187 138.988 62.1224 139.503ZM98.368 139.297C98.368 139.387 99.1317 140.151 100.064 140.994L101.761 142.527L100.228 140.83C98.7986 139.249 98.368 138.894 98.368 139.297ZM128.416 140.547C128.133 141.291 128.193 141.351 128.709 140.839C129.066 140.485 129.226 140.064 129.065 139.903C128.904 139.743 128.613 140.032 128.416 140.547ZM37.0664 141.069C36.7835 141.813 36.843 141.873 37.3587 141.361C37.7158 141.007 37.876 140.586 37.7153 140.425C37.5545 140.265 37.2627 140.554 37.0664 141.069ZM39.7636 141.702C39.5365 142.57 39.6044 142.774 39.9917 142.387C40.2955 142.083 40.4406 141.527 40.3153 141.15C40.1848 140.759 39.9484 140.996 39.7636 141.702ZM61.5456 141.257C61.3561 141.563 61.3133 141.926 61.4501 142.062C61.5868 142.199 61.8379 141.949 62.0081 141.505C62.361 140.586 62.0603 140.424 61.5456 141.257ZM93.1443 141.998C94.537 143.876 97.8465 147.473 97.822 147.083C97.8089 146.874 96.5754 145.408 95.0815 143.825C93.5875 142.242 92.7158 141.42 93.1443 141.998ZM67.0642 142.527C67.0642 142.814 67.2918 143.401 67.57 143.832C67.8482 144.263 68.0758 144.38 68.0758 144.093C68.0758 143.806 67.8482 143.219 67.57 142.788C67.2918 142.357 67.0642 142.24 67.0642 142.527ZM60.5877 143.591C60.084 144.904 60.2322 145.242 60.8477 144.184C61.1525 143.66 61.2919 143.122 61.1572 142.987C61.0231 142.853 60.7662 143.125 60.5877 143.591ZM102.07 143.162C102.374 144.068 108.418 151.004 109.199 151.345C109.65 151.541 109.836 151.11 109.8 149.949C109.755 148.517 109.698 148.445 109.408 149.466C109.081 150.621 108.992 150.584 106.943 148.422C105.774 147.189 104.151 145.359 103.337 144.354C102.523 143.349 101.953 142.813 102.07 143.162ZM126.701 143.44C125.919 144.452 125.426 145.398 125.682 145.398C125.81 145.398 126.299 144.811 126.769 144.093C127.649 142.75 127.6 142.279 126.701 143.44ZM17.0367 145.974C16.9814 147.583 16.8274 150.401 16.6948 152.238L16.4537 155.577L16.9658 152.445C17.2471 150.722 17.4006 147.904 17.3071 146.181L17.137 143.049L17.0367 145.974ZM22.4504 143.985C22.6467 144.5 22.9385 144.789 23.0993 144.629C23.26 144.468 23.0998 144.047 22.7427 143.693C22.227 143.181 22.1675 143.241 22.4504 143.985ZM63.2536 144.312C63.0265 145.18 63.0944 145.384 63.4817 144.997C63.7855 144.693 63.9306 144.137 63.8053 143.76C63.6748 143.369 63.4384 143.606 63.2536 144.312ZM132.037 144.876C131.86 145.163 131.963 145.398 132.267 145.398C132.571 145.398 132.82 145.163 132.82 144.876C132.82 144.589 132.717 144.354 132.59 144.354C132.463 144.354 132.214 144.589 132.037 144.876ZM34.9784 145.767C34.6955 146.511 34.755 146.571 35.2707 146.059C35.6278 145.705 35.788 145.284 35.6273 145.123C35.4665 144.963 35.1747 145.252 34.9784 145.767ZM38.0556 145.433C37.8661 145.739 37.8233 146.102 37.9601 146.238C38.0968 146.375 38.3479 146.125 38.5181 145.681C38.871 144.762 38.5703 144.6 38.0556 145.433ZM23.2 145.889C23.2 146.16 23.4323 146.524 23.7163 146.699C24.0117 146.882 24.0994 146.673 23.9214 146.208C23.5743 145.304 23.2 145.139 23.2 145.889ZM59.5996 146.4C59.3725 147.268 59.4404 147.472 59.8277 147.085C60.1315 146.781 60.2766 146.225 60.1513 145.848C60.0208 145.457 59.7844 145.694 59.5996 146.4ZM29.986 146.411C29.986 146.682 30.2183 147.046 30.5023 147.221C30.7977 147.404 30.8854 147.195 30.7074 146.73C30.3603 145.826 29.986 145.661 29.986 146.411ZM124.07 147.777C123.428 148.757 122.902 149.735 122.902 149.949C122.902 150.163 123.51 149.443 124.253 148.349C124.997 147.256 125.522 146.279 125.422 146.178C125.321 146.077 124.713 146.797 124.07 147.777ZM19.6337 151.762C19.5857 154.831 19.7224 157.452 19.9375 157.586C20.1526 157.72 20.2653 156.031 20.1875 153.832C19.9391 146.819 19.724 146.016 19.6337 151.762ZM62.1537 147.245C61.7361 148.333 62.7331 148.626 66.0661 148.395L68.875 148.201L65.6287 148.105C62.9816 148.026 62.4382 147.863 62.683 147.225C62.8485 146.794 62.8663 146.442 62.7227 146.442C62.5792 146.442 62.3228 146.803 62.1537 147.245ZM36.9359 147.877C36.7574 148.38 36.4933 149.003 36.3497 149.263C36.2062 149.523 36.3314 149.585 36.6284 149.402C37.1724 149.066 37.9147 146.964 37.4897 146.964C37.3639 146.964 37.115 147.375 36.9359 147.877ZM24.244 147.977C24.244 148.248 24.4763 148.612 24.7603 148.787C25.0557 148.97 25.1434 148.761 24.9654 148.296C24.6183 147.392 24.244 147.227 24.244 147.977ZM47.3331 149.052C47.3331 150.057 47.4406 150.468 47.5717 149.965C47.7032 149.463 47.7032 148.641 47.5717 148.138C47.4406 147.636 47.3331 148.047 47.3331 149.052ZM98.368 147.857C98.368 148.157 98.7788 148.725 99.2815 149.119C100.127 149.781 100.138 149.757 99.4292 148.791C99.008 148.217 98.5972 147.649 98.5157 147.529C98.4343 147.41 98.368 147.557 98.368 147.857ZM31.03 148.499C31.03 148.77 31.2623 149.134 31.5463 149.309C31.8417 149.492 31.9294 149.283 31.7514 148.818C31.4043 147.914 31.03 147.749 31.03 148.499ZM129.445 149.358C128.959 150.101 128.65 150.799 128.76 150.908C128.87 151.018 129.372 150.41 129.875 149.558C131 147.654 130.665 147.497 129.445 149.358ZM33.3576 149.087C33.1681 149.393 33.1253 149.756 33.2621 149.892C33.3988 150.029 33.6499 149.779 33.8201 149.335C34.173 148.416 33.8723 148.254 33.3576 149.087ZM32.074 150.618C32.074 150.905 32.323 151.14 32.6268 151.14C32.9306 151.14 33.0345 150.905 32.857 150.618C32.6795 150.331 32.431 150.096 32.3042 150.096C32.1774 150.096 32.074 150.331 32.074 150.618ZM57.6932 151.444C57.7183 152.052 57.842 152.176 58.0085 151.76C58.1594 151.383 58.1406 150.933 57.9673 150.759C57.794 150.586 57.6708 150.894 57.6932 151.444ZM60.4421 151.423C60.2719 151.867 60.2797 152.376 60.4583 152.555C60.6373 152.734 60.784 152.488 60.784 152.01C60.784 151.264 61.4381 151.14 65.3776 151.14C68.354 151.14 70.2024 151.37 70.6284 151.792C71.1556 152.316 71.2167 152.264 70.9379 151.531C70.6409 150.751 69.8757 150.618 65.671 150.618C61.7184 150.618 60.6906 150.776 60.4421 151.423ZM76.4889 151.14C76.4727 151.571 76.6878 152.275 76.966 152.706C77.5825 153.66 77.5825 152.836 76.966 151.401C76.67 150.712 76.5077 150.624 76.4889 151.14ZM121.899 151.016C121.877 151.378 120.772 153.307 119.445 155.302C118.025 157.438 117.16 159.261 117.341 159.733C117.605 160.42 119.227 160.536 128.597 160.536C134.618 160.536 139.653 160.36 139.787 160.144C139.92 159.929 135.001 159.821 128.856 159.903C119.965 160.023 117.682 159.915 117.682 159.376C117.682 159.003 118.754 157.1 120.064 155.147C121.374 153.195 122.332 151.318 122.193 150.977C122.008 150.524 121.93 150.534 121.899 151.016ZM47.8655 152.967C47.8713 154.115 47.9783 154.524 48.1031 153.874C48.2278 153.225 48.2231 152.285 48.0926 151.786C47.9621 151.287 47.8598 151.819 47.8655 152.967ZM34.423 153.569C33.985 154.618 33.747 155.597 33.8942 155.744C34.0414 155.891 34.162 155.884 34.162 155.728C34.162 155.571 34.5175 154.592 34.9518 153.553C35.3866 152.513 35.6246 151.662 35.4811 151.662C35.3375 151.662 34.8615 152.52 34.423 153.569ZM102.544 152.944C103.262 153.793 104.645 155.32 105.619 156.337L107.388 158.187L105.801 156.099C104.928 154.951 103.545 153.424 102.727 152.706L101.239 151.401L102.544 152.944ZM126.886 153.739C126.131 154.881 125.514 156.114 125.515 156.48C125.517 156.844 125.825 156.556 126.2 155.838C126.575 155.12 127.305 153.887 127.823 153.097C128.341 152.308 128.651 151.662 128.512 151.662C128.374 151.662 127.642 152.596 126.886 153.739ZM42.134 154.794C42.134 156.086 42.2358 156.615 42.3605 155.968C42.4848 155.322 42.4848 154.266 42.3605 153.619C42.2358 152.973 42.134 153.502 42.134 154.794ZM138.595 154.423L137.324 156.099L139.011 154.542C140.438 153.227 140.783 153.105 141.236 153.759C141.709 154.44 141.748 154.439 141.56 153.75C141.19 152.395 139.914 152.684 138.595 154.423ZM77.488 154.241C77.488 154.512 77.7203 154.876 78.0042 155.051C78.2997 155.234 78.3874 155.025 78.2094 154.56C77.8623 153.656 77.488 153.491 77.488 154.241ZM153.821 155.316C153.821 156.321 153.929 156.732 154.06 156.229C154.191 155.727 154.191 154.905 154.06 154.402C153.929 153.9 153.821 154.311 153.821 155.316ZM59.3198 155.577C59.3302 156.438 59.4472 156.727 59.5797 156.22C59.7123 155.712 59.7035 155.007 59.5604 154.654C59.4174 154.3 59.3093 154.716 59.3198 155.577ZM55.8036 155.873C55.6141 156.179 55.5713 156.542 55.7081 156.678C55.8448 156.815 56.0959 156.565 56.2661 156.121C56.619 155.202 56.3183 155.04 55.8036 155.873ZM178.004 156.116C177.446 156.537 177.242 156.882 177.548 156.882C177.855 156.882 178.398 156.53 178.756 156.099C179.569 155.12 179.313 155.125 178.004 156.116ZM78.532 156.192C78.532 156.483 79.0603 157.168 79.7065 157.715L80.881 158.709L79.8427 157.404C79.2717 156.686 78.7429 156.001 78.6682 155.881C78.5931 155.762 78.532 155.902 78.532 156.192ZM15.6644 157.251C15.3815 157.995 15.441 158.055 15.9567 157.543C16.3138 157.189 16.474 156.768 16.3133 156.607C16.1525 156.447 15.8607 156.736 15.6644 157.251ZM28.4362 156.621C28.4362 156.908 28.6638 157.495 28.942 157.926C29.2202 158.357 29.4478 158.474 29.4478 158.187C29.4478 157.9 29.2202 157.313 28.942 156.882C28.6638 156.451 28.4362 156.334 28.4362 156.621ZM32.8356 156.917C32.6461 157.223 32.6033 157.586 32.7401 157.722C32.8768 157.859 33.1279 157.609 33.2981 157.165C33.651 156.246 33.3503 156.084 32.8356 156.917ZM90.538 156.851C90.538 157.122 90.7703 157.486 91.0543 157.661C91.3497 157.844 91.4374 157.635 91.2594 157.17C90.9123 156.266 90.538 156.101 90.538 156.851ZM135.952 156.882C135.482 157.186 135.417 157.391 135.791 157.396C136.133 157.4 136.557 157.169 136.735 156.882C137.135 156.234 136.955 156.234 135.952 156.882ZM53.6065 158.114C52.9603 158.434 52.432 158.889 52.432 159.124C52.432 159.36 52.1971 159.408 51.91 159.231C51.6229 159.053 51.388 159.157 51.388 159.461C51.388 159.817 49.323 160.014 45.5901 160.014C40.651 160.014 39.8367 159.898 40.093 159.231C40.2579 158.8 40.1483 158.448 39.8492 158.448C39.5501 158.448 39.3846 158.859 39.4812 159.361C39.6425 160.198 40.6186 160.275 51.127 160.275C61.6354 160.275 62.6115 160.198 62.7728 159.361C62.8694 158.859 62.7039 158.448 62.4048 158.448C62.1057 158.448 61.9961 158.8 62.161 159.231C62.4158 159.894 61.6761 160.013 57.3163 160.011L52.171 160.009L53.737 158.725C55.4356 157.332 55.4116 157.22 53.6065 158.114ZM126.947 157.789C128.455 157.894 130.921 157.894 132.428 157.789C133.936 157.683 132.703 157.597 129.688 157.597C126.673 157.597 125.44 157.683 126.947 157.789ZM140.169 158.23C140.194 158.838 140.318 158.962 140.485 158.546C140.635 158.169 140.617 157.719 140.443 157.545C140.27 157.372 140.147 157.68 140.169 158.23ZM171.586 157.779C172.379 157.898 173.554 157.895 174.196 157.771C174.838 157.648 174.188 157.55 172.753 157.553C171.317 157.557 170.792 157.659 171.586 157.779ZM70.4128 159.015C69.671 160.216 71.2532 160.568 76.7499 160.424C81.2469 160.306 82.447 160.119 82.447 159.535C82.447 159.129 82.1474 158.735 81.7814 158.661C81.4155 158.587 81.3565 158.646 81.6509 158.791C83.2932 159.606 81.5361 160.014 76.3881 160.014C71.449 160.014 70.6347 159.898 70.891 159.231C71.2391 158.324 70.9275 158.183 70.4128 159.015ZM93.6569 158.791C95.1895 159.551 93.6643 159.995 88.9709 160.155L83.7499 160.332L89.1014 160.304C93.3568 160.281 94.453 160.124 94.453 159.535C94.453 159.129 94.1534 158.735 93.7874 158.661C93.4215 158.587 93.3625 158.646 93.6569 158.791ZM145.174 158.796C144.983 158.987 144.826 159.465 144.826 159.856C144.826 160.426 146.053 160.54 150.959 160.422C155.834 160.305 157.093 160.123 157.093 159.535C157.093 159.129 156.793 158.735 156.427 158.661C156.062 158.587 156.003 158.646 156.297 158.791C157.939 159.606 156.182 160.014 151.034 160.014C146.095 160.014 145.281 159.898 145.537 159.231C145.86 158.39 145.732 158.238 145.174 158.796ZM180.885 159.274C180.91 159.882 181.034 160.006 181.201 159.59C181.351 159.213 181.333 158.763 181.159 158.589C180.986 158.416 180.863 158.724 180.885 159.274ZM159.972 159.622C159.965 160.466 160.755 160.527 170.273 160.417L180.583 160.299L170.688 160.145C163.585 160.034 160.679 159.809 160.387 159.349C160.103 158.902 159.978 158.985 159.972 159.622ZM13.223 160.166C13.4511 160.393 15.7307 160.509 18.2885 160.423L22.939 160.268L17.873 160.01C15.0871 159.869 12.9944 159.939 13.223 160.166ZM109.33 160.275C110.048 160.685 111.105 161.019 111.679 161.017C112.253 161.014 111.783 160.674 110.635 160.26C108.019 159.318 107.663 159.322 109.33 160.275ZM30.5153 160.752C30.8536 161.09 31.2064 161.09 31.5447 160.752C31.8824 160.414 31.706 160.238 31.03 160.238C30.354 160.238 30.1776 160.414 30.5153 160.752ZM82.3165 167.713C90.5704 167.794 104.077 167.794 112.331 167.713C120.585 167.633 113.832 167.566 97.324 167.566C80.8157 167.566 74.0621 167.633 82.3165 167.713ZM45.5155 168.221C46.4483 168.337 47.9757 168.337 48.9085 168.221C49.8413 168.106 49.0781 168.011 47.212 168.011C45.3458 168.011 44.5827 168.106 45.5155 168.221ZM144.45 168.228C145.822 168.336 147.937 168.335 149.148 168.226C150.36 168.116 149.237 168.028 146.653 168.029C144.069 168.031 143.078 168.121 144.45 168.228ZM18.9112 168.751C20.4277 168.857 22.7767 168.856 24.1312 168.749C25.4853 168.642 24.244 168.555 21.373 168.557C18.502 168.558 17.3943 168.646 18.9112 168.751ZM169.751 168.751C171.258 168.856 173.725 168.856 175.232 168.751C176.739 168.645 175.507 168.559 172.492 168.559C169.477 168.559 168.244 168.645 169.751 168.751ZM21.2618 170.318C22.9228 170.422 25.5067 170.421 27.0038 170.316C28.5004 170.211 27.1411 170.126 23.983 170.127C20.8249 170.128 19.6003 170.214 21.2618 170.318ZM163.226 170.319C165.164 170.42 168.336 170.42 170.273 170.319C172.211 170.219 170.626 170.137 166.75 170.137C162.874 170.137 161.289 170.219 163.226 170.319Z" fill="black"/>
</svg>
